MerriweatherSansLight.ufo
<glyph name="dollar" format="1">
  <advance width="1382"/>
  <unicode hex="0024"/>
  <outline>
    <contour>
      <point x="653" y="1511" type="line"/>
      <point x="778" y="1511" type="line"/>
      <point x="781" y="1752" type="line"/>
      <point x="657" y="1752" type="line"/>
    </contour>
    <contour>
      <point x="609" y="-235" type="line"/>
      <point x="733" y="-235" type="line"/>
      <point x="736" y="7" type="line"/>
      <point x="611" y="7" type="line"/>
    </contour>
    <component base="S" xOffset="102"/>
  </outline>
</glyph>
<glyph name="ampersand" format="1">
  <advance width="1532"/>
  <unicode hex="0026"/>
  <outline>
    <contour>
      <point x="1012" y="173" type="curve"/>
      <point x="925" y="132"/>
      <point x="836" y="106"/>
      <point x="743" y="106" type="curve" smooth="yes"/>
      <point x="433" y="106"/>
      <point x="305" y="239"/>
      <point x="305" y="390" type="curve" smooth="yes"/>
      <point x="305" y="546"/>
      <point x="445" y="638"/>
      <point x="598" y="704" type="curve"/>
      <point x="613" y="712"/>
      <point x="658" y="723"/>
      <point x="674" y="730" type="curve"/>
      <point x="904" y="831"/>
      <point x="1073" y="963"/>
      <point x="1073" y="1214" type="curve" smooth="yes"/>
      <point x="1073" y="1386"/>
      <point x="936" y="1546"/>
      <point x="701" y="1546" type="curve" smooth="yes"/>
      <point x="458" y="1546"/>
      <point x="298" y="1415"/>
      <point x="298" y="1197" type="curve" smooth="yes"/>
      <point x="298" y="1019"/>
      <point x="420" y="867"/>
      <point x="518" y="743" type="curve"/>
      <point x="542" y="712" type="line"/>
      <point x="651" y="561"/>
      <point x="872" y="274"/>
      <point x="1007" y="134" type="curve" smooth="yes"/>
      <point x="1121" y="33"/>
      <point x="1201" y="-16"/>
      <point x="1327" y="-16" type="curve" smooth="yes"/>
      <point x="1380" y="-16"/>
      <point x="1412" y="-9"/>
      <point x="1440" y="-1" type="curve"/>
      <point x="1440" y="87" type="line"/>
      <point x="1316" y="85"/>
      <point x="1235" y="115"/>
      <point x="1113" y="233" type="curve" smooth="yes"/>
      <point x="1000" y="348"/>
      <point x="763" y="651"/>
      <point x="684" y="761" type="curve"/>
      <point x="659" y="794" type="line"/>
      <point x="539" y="964"/>
      <point x="453" y="1038"/>
      <point x="453" y="1200" type="curve" smooth="yes"/>
      <point x="453" y="1357"/>
      <point x="561" y="1427"/>
      <point x="697" y="1427" type="curve" smooth="yes"/>
      <point x="846" y="1427"/>
      <point x="930" y="1317"/>
      <point x="930" y="1212" type="curve" smooth="yes"/>
      <point x="930" y="1001"/>
      <point x="774" y="893"/>
      <point x="573" y="820" type="curve"/>
      <point x="565" y="817"/>
      <point x="533" y="807"/>
      <point x="525" y="803" type="curve"/>
      <point x="330" y="725"/>
      <point x="148" y="604"/>
      <point x="148" y="386" type="curve" smooth="yes"/>
      <point x="148" y="125"/>
      <point x="391" y="-16"/>
      <point x="752" y="-16" type="curve" smooth="yes"/>
      <point x="884" y="-16"/>
      <point x="1033" y="33"/>
      <point x="1125" y="90" type="curve"/>
      <point x="1137" y="98"/>
      <point x="1147" y="114"/>
      <point x="1158" y="123" type="curve"/>
      <point x="1291" y="211"/>
      <point x="1355" y="342"/>
      <point x="1355" y="514" type="curve" smooth="yes"/>
      <point x="1355" y="614"/>
      <point x="1332" y="694"/>
      <point x="1320" y="728" type="curve"/>
      <point x="1173" y="728" type="line"/>
      <point x="1185" y="699"/>
      <point x="1211" y="613"/>
      <point x="1211" y="514" type="curve" smooth="yes"/>
      <point x="1211" y="364"/>
      <point x="1152" y="274"/>
      <point x="1052" y="205" type="curve"/>
      <point x="1044" y="196"/>
      <point x="1034" y="187"/>
    </contour>
  </outline>
</glyph>
<glyph name="comma" format="1">
  <advance width="601"/>
  <unicode hex="002C"/>
  <outline>
    <contour>
      <point x="165" y="-430" type="line"/>
      <point x="221" y="-499" type="line"/>
      <point x="348" y="-443"/>
      <point x="465" y="-271"/>
      <point x="465" y="-45" type="curve" smooth="yes"/>
      <point x="465" y="63"/>
      <point x="425" y="202"/>
      <point x="306" y="258" type="curve"/>
      <point x="201" y="159" type="line"/>
      <point x="201" y="111" type="line"/>
      <point x="259" y="90"/>
      <point x="307" y="-14"/>
      <point x="307" y="-96" type="curve" smooth="yes"/>
      <point x="307" y="-252"/>
      <point x="232" y="-370"/>
      <point x="164" y="-409" type="curve"/>
    </contour>
  </outline>
</glyph>
<glyph name="hyphen" format="1">
  <advance width="1350"/>
  <unicode hex="002D"/>
  <outline>
    <contour>
      <point x="247" y="705" type="line"/>
      <point x="1103" y="705" type="line"/>
      <point x="1103" y="840" type="line"/>
      <point x="247" y="840" type="line"/>
    </contour>
  </outline>
</glyph>
<glyph name="zero" format="1">
  <advance width="1378"/>
  <unicode hex="0030"/>
  <outline>
    <contour>
      <point x="682" y="-12" type="curve" smooth="yes"/>
      <point x="1001" y="-12"/>
      <point x="1224" y="255"/>
      <point x="1227" y="637" type="curve" smooth="yes"/>
      <point x="1230" y="987"/>
      <point x="1102" y="1270"/>
      <point x="707" y="1270" type="curve" smooth="yes"/>
      <point x="400" y="1270"/>
      <point x="158" y="1028"/>
      <point x="152" y="643" type="curve" smooth="yes"/>
      <point x="149" y="302"/>
      <point x="295" y="-12"/>
    </contour>
    <contour>
      <point x="688" y="96" type="curve" smooth="yes"/>
      <point x="426" y="100"/>
      <point x="314" y="368"/>
      <point x="315" y="649" type="curve" smooth="yes"/>
      <point x="317" y="963"/>
      <point x="465" y="1160"/>
      <point x="697" y="1159" type="curve" smooth="yes"/>
      <point x="961" y="1159"/>
      <point x="1064" y="923"/>
      <point x="1063" y="630" type="curve" smooth="yes"/>
      <point x="1062" y="301"/>
      <point x="923" y="93"/>
    </contour>
  </outline>
</glyph>
<glyph name="two" format="1">
  <advance width="1266"/>
  <unicode hex="0032"/>
  <outline>
    <contour>
      <point x="181" y="0" type="line"/>
      <point x="1120" y="0" type="line"/>
      <point x="1120" y="135" type="line"/>
      <point x="317" y="130" type="line"/>
      <point x="316" y="65" type="line"/>
      <point x="720" y="279"/>
      <point x="1048" y="596"/>
      <point x="1048" y="904" type="curve" smooth="yes"/>
      <point x="1048" y="1112"/>
      <point x="933" y="1287"/>
      <point x="619" y="1287" type="curve" smooth="yes"/>
      <point x="411" y="1287"/>
      <point x="251" y="1182"/>
      <point x="178" y="1094" type="curve"/>
      <point x="249" y="999" type="line"/>
      <point x="328" y="1086"/>
      <point x="468" y="1153"/>
      <point x="601" y="1153" type="curve" smooth="yes"/>
      <point x="782" y="1153"/>
      <point x="878" y="1053"/>
      <point x="878" y="895" type="curve" smooth="yes"/>
      <point x="878" y="602"/>
      <point x="507" y="293"/>
      <point x="156" y="86" type="curve"/>
    </contour>
  </outline>
</glyph>
<glyph name="three" format="1">
  <advance width="1136"/>
  <unicode hex="0033"/>
  <outline>
    <contour>
      <point x="149" y="-319" type="line"/>
      <point x="217" y="-331"/>
      <point x="282" y="-337"/>
      <point x="344" y="-337" type="curve" smooth="yes"/>
      <point x="762" y="-337"/>
      <point x="1023" y="-82"/>
      <point x="1023" y="192" type="curve" smooth="yes"/>
      <point x="1023" y="386"/>
      <point x="868" y="566"/>
      <point x="592" y="557" type="curve"/>
      <point x="593" y="533" type="line"/>
      <point x="781" y="597"/>
      <point x="945" y="743"/>
      <point x="945" y="940" type="curve" smooth="yes"/>
      <point x="945" y="1171"/>
      <point x="751" y="1284"/>
      <point x="527" y="1284" type="curve" smooth="yes"/>
      <point x="344" y="1284"/>
      <point x="180" y="1191"/>
      <point x="105" y="1127" type="curve"/>
      <point x="171" y="1031" type="line"/>
      <point x="233" y="1079"/>
      <point x="349" y="1152"/>
      <point x="513" y="1152" type="curve" smooth="yes"/>
      <point x="667" y="1152"/>
      <point x="782" y="1082"/>
      <point x="780" y="920" type="curve" smooth="yes"/>
      <point x="779" y="797"/>
      <point x="684" y="677"/>
      <point x="502" y="610" type="curve" smooth="yes"/>
      <point x="445" y="588"/>
      <point x="388" y="571"/>
      <point x="317" y="557" type="curve"/>
      <point x="353" y="441" type="line"/>
      <point x="464" y="468" type="line"/>
      <point x="733" y="499"/>
      <point x="853" y="360"/>
      <point x="853" y="180" type="curve" smooth="yes"/>
      <point x="853" y="-22"/>
      <point x="645" y="-215"/>
      <point x="313" y="-218" type="curve" smooth="yes"/>
      <point x="261" y="-219"/>
      <point x="204" y="-214"/>
      <point x="148" y="-204" type="curve"/>
    </contour>
  </outline>
</glyph>
<glyph name="less" format="1">
  <advance width="1368"/>
  <unicode hex="003C"/>
  <outline>
    <contour>
      <point x="171" y="712" type="line"/>
      <point x="1133" y="254" type="line"/>
      <point x="1133" y="413" type="line"/>
      <point x="331" y="779" type="line"/>
      <point x="331" y="767" type="line"/>
      <point x="1133" y="1137" type="line"/>
      <point x="1133" y="1293" type="line"/>
      <point x="171" y="834" type="line"/>
    </contour>
  </outline>
</glyph>
<glyph name="D" format="1">
  <advance width="1479"/>
  <unicode hex="0044"/>
  <outline>
    <contour>
      <point x="206" y="0" type="line"/>
      <point x="214" y="0"/>
      <point x="297" y="-1"/>
      <point x="317" y="-2" type="curve" smooth="yes"/>
      <point x="419" y="-3"/>
      <point x="554" y="-14"/>
      <point x="640" y="-16" type="curve" smooth="yes"/>
      <point x="1115" y="-23"/>
      <point x="1384" y="306"/>
      <point x="1384" y="805" type="curve" smooth="yes"/>
      <point x="1385" y="1265"/>
      <point x="1147" y="1536"/>
      <point x="664" y="1536" type="curve" smooth="yes"/>
      <point x="544" y="1536"/>
      <point x="421" y="1523"/>
      <point x="326" y="1523" type="curve" smooth="yes"/>
      <point x="313" y="1522"/>
      <point x="218" y="1522"/>
      <point x="206" y="1522" type="curve"/>
    </contour>
    <contour>
      <point x="375" y="128" type="curve"/>
      <point x="375" y="1399" type="line"/>
      <point x="444" y="1406"/>
      <point x="528" y="1413"/>
      <point x="624" y="1413" type="curve" smooth="yes"/>
      <point x="1012" y="1413"/>
      <point x="1210" y="1227"/>
      <point x="1208" y="780" type="curve" smooth="yes"/>
      <point x="1206" y="320"/>
      <point x="986" y="114"/>
      <point x="665" y="110" type="curve" smooth="yes"/>
      <point x="577" y="109"/>
      <point x="452" y="117"/>
    </contour>
    <contour>
      <point x="761" y="-170" type="move" name="btm"/>
    </contour>
    <contour>
      <point x="713" y="1700" type="move" name="top"/>
    </contour>
  </outline>
</glyph>
<glyph name="E" format="1">
  <advance width="1203"/>
  <unicode hex="0045"/>
  <outline>
    <contour>
      <point x="206" y="0" type="line"/>
      <point x="1137" y="0" type="line"/>
      <point x="1137" y="133" type="line"/>
      <point x="375" y="133" type="line"/>
      <point x="375" y="721" type="line"/>
      <point x="878" y="721" type="line"/>
      <point x="878" y="852" type="line"/>
      <point x="375" y="852" type="line"/>
      <point x="375" y="1391" type="line"/>
      <point x="1064" y="1391" type="line"/>
      <point x="1064" y="1522" type="line"/>
      <point x="206" y="1522" type="line"/>
    </contour>
    <contour>
      <point x="665" y="-170" type="move" name="btm"/>
    </contour>
    <contour>
      <point x="673" y="1700" type="move" name="top"/>
    </contour>
  </outline>
</glyph>
<glyph name="I" format="1">
  <advance width="613"/>
  <unicode hex="0049"/>
  <outline>
    <contour>
      <point x="221" y="0" type="line"/>
      <point x="392" y="0" type="line"/>
      <point x="392" y="1522" type="line"/>
      <point x="221" y="1522" type="line"/>
    </contour>
    <contour>
      <point x="312" y="-170" type="move" name="btm"/>
    </contour>
    <contour>
      <point x="307" y="1700" type="move" name="top"/>
    </contour>
  </outline>
</glyph>
<glyph name="J" format="1">
  <advance width="694"/>
  <unicode hex="004A"/>
  <outline>
    <contour>
      <point x="14" y="-332" type="line"/>
      <point x="188" y="-307"/>
      <point x="402" y="-178"/>
      <point x="446" y="65" type="curve" smooth="yes"/>
      <point x="470" y="198"/>
      <point x="465" y="360"/>
      <point x="465" y="537" type="curve" smooth="yes"/>
      <point x="465" y="1522" type="line"/>
      <point x="293" y="1522" type="line"/>
      <point x="293" y="554" type="line" smooth="yes"/>
      <point x="293" y="344"/>
      <point x="295" y="150"/>
      <point x="259" y="31" type="curve" smooth="yes"/>
      <point x="215" y="-118"/>
      <point x="85" y="-209"/>
      <point x="-39" y="-243" type="curve"/>
    </contour>
    <contour>
      <point x="280" y="-170" type="move" name="btm"/>
    </contour>
    <contour>
      <point x="376" y="1700" type="move" name="top"/>
    </contour>
  </outline>
</glyph>
<glyph name="L" format="1">
  <advance width="1066"/>
  <unicode hex="004C"/>
  <outline>
    <contour>
      <point x="206" y="0" type="line"/>
      <point x="1007" y="0" type="line"/>
      <point x="1007" y="133" type="line"/>
      <point x="378" y="133" type="line"/>
      <point x="378" y="1522" type="line"/>
      <point x="206" y="1522" type="line"/>
    </contour>
    <contour>
      <point x="586" y="-170" type="move" name="btm"/>
    </contour>
    <contour>
      <point x="290" y="1700" type="move" name="top"/>
    </contour>
  </outline>
</glyph>
<glyph name="N" format="1">
  <advance width="1553"/>
  <unicode hex="004E"/>
  <outline>
    <contour>
      <point x="205" y="0" type="line"/>
      <point x="361" y="0" type="line"/>
      <point x="361" y="970" type="line"/>
      <point x="346" y="1422" type="line"/>
      <point x="278" y="1422" type="line"/>
      <point x="506" y="1034" type="line"/>
      <point x="1193" y="0" type="line"/>
      <point x="1348" y="0" type="line"/>
      <point x="1348" y="1522" type="line"/>
      <point x="1193" y="1522" type="line"/>
      <point x="1193" y="526" type="line"/>
      <point x="1209" y="105" type="line"/>
      <point x="1268" y="105" type="line"/>
      <point x="1063" y="462" type="line"/>
      <point x="362" y="1522" type="line"/>
      <point x="205" y="1522" type="line"/>
    </contour>
    <contour>
      <point x="750" y="-170" type="move" name="btm"/>
    </contour>
    <contour>
      <point x="787" y="1700" type="move" name="top"/>
    </contour>
  </outline>
</glyph>
<glyph name="Q" format="1">
  <advance width="1570"/>
  <unicode hex="0051"/>
  <outline>
    <contour>
      <point x="1333" y="-287" type="curve" smooth="yes"/>
      <point x="1407" y="-287"/>
      <point x="1479" y="-270"/>
      <point x="1510" y="-249" type="curve"/>
      <point x="1510" y="-126" type="line"/>
      <point x="1467" y="-144"/>
      <point x="1384" y="-149"/>
      <point x="1332" y="-149" type="curve" smooth="yes"/>
      <point x="1150" y="-149"/>
      <point x="1009" y="-75"/>
      <point x="929" y="51" type="curve"/>
      <point x="849" y="52" type="line"/>
      <point x="774" y="23" type="line"/>
      <point x="940" y="-225"/>
      <point x="1114" y="-287"/>
    </contour>
    <contour>
      <point x="788" y="-170" type="move" name="btm"/>
    </contour>
    <contour>
      <point x="801" y="1672" type="move" name="top"/>
    </contour>
    <component base="O" xOffset="-1"/>
  </outline>
</glyph>
<glyph name="bracketleft" format="1">
  <advance width="841"/>
  <unicode hex="005B"/>
  <outline>
    <contour>
      <point x="226" y="2" type="line"/>
      <point x="226" y="-150"/>
      <point x="254" y="-191"/>
      <point x="376" y="-191" type="curve" smooth="yes"/>
      <point x="480" y="-191"/>
      <point x="597" y="-184"/>
      <point x="688" y="-171" type="curve"/>
      <point x="688" y="-84" type="line"/>
      <point x="386" y="-82" type="line"/>
      <point x="386" y="1627" type="line"/>
      <point x="688" y="1627" type="line"/>
      <point x="688" y="1717" type="line"/>
      <point x="597" y="1726"/>
      <point x="480" y="1737"/>
      <point x="376" y="1737" type="curve" smooth="yes"/>
      <point x="254" y="1737"/>
      <point x="226" y="1696"/>
      <point x="226" y="1544" type="curve" smooth="yes"/>
    </contour>
  </outline>
</glyph>
<glyph name="underscore" format="1">
  <advance width="1692"/>
  <unicode hex="005F"/>
  <outline>
    <contour>
      <point x="-40" y="-402" type="line"/>
      <point x="1732" y="-402" type="line"/>
      <point x="1732" y="-297" type="line"/>
      <point x="-40" y="-297" type="line"/>
    </contour>
  </outline>
</glyph>
<glyph name="grave" format="1">
  <advance width="557"/>
  <unicode hex="0060"/>
  <outline>
    <contour>
      <point x="507" y="1383" type="line"/>
      <point x="390" y="1516"/>
      <point x="271" y="1650"/>
      <point x="170" y="1781" type="curve"/>
      <point x="50" y="1678" type="line"/>
      <point x="130" y="1563"/>
      <point x="327" y="1378"/>
      <point x="422" y="1315" type="curve"/>
    </contour>
    <contour>
      <point x="401" y="1700" type="move" name="_top"/>
    </contour>
  </outline>
</glyph>
<glyph name="d" format="1">
  <advance width="1239"/>
  <unicode hex="0064"/>
  <outline>
    <contour>
      <point x="987" y="-12" type="curve" smooth="yes"/>
      <point x="1059" y="-12" type="line"/>
      <point x="1059" y="1664" type="line"/>
      <point x="892" y="1664" type="line"/>
      <point x="892" y="1186" type="line"/>
      <point x="900" y="1006" type="line"/>
      <point x="892" y="1001" type="line"/>
      <point x="892" y="161" type="line"/>
      <point x="902" y="157" type="line"/>
      <point x="902" y="57" type="line" smooth="yes"/>
      <point x="902" y="-6"/>
      <point x="936" y="-12"/>
    </contour>
    <contour>
      <point x="552" y="-16" type="curve" smooth="yes"/>
      <point x="763" y="-16"/>
      <point x="872" y="96"/>
      <point x="922" y="146" type="curve"/>
      <point x="895" y="232" type="line"/>
      <point x="840" y="184"/>
      <point x="731" y="115"/>
      <point x="597" y="115" type="curve" smooth="yes"/>
      <point x="393" y="115"/>
      <point x="269" y="259"/>
      <point x="273" y="556" type="curve" smooth="yes"/>
      <point x="276" y="860"/>
      <point x="440" y="1034"/>
      <point x="658" y="1034" type="curve" smooth="yes"/>
      <point x="782" y="1034"/>
      <point x="858" y="1009"/>
      <point x="894" y="977" type="curve"/>
      <point x="957" y="1086" type="line"/>
      <point x="932" y="1109"/>
      <point x="821" y="1156"/>
      <point x="674" y="1156" type="curve" smooth="yes"/>
      <point x="330" y="1156"/>
      <point x="102" y="897"/>
      <point x="102" y="533" type="curve" smooth="yes"/>
      <point x="102" y="147"/>
      <point x="319" y="-16"/>
    </contour>
    <contour>
      <point x="571" y="-170" type="move" name="btm"/>
    </contour>
    <contour>
      <point x="376" y="1700" type="move" name="top"/>
    </contour>
  </outline>
</glyph>
<glyph name="e" format="1">
  <advance width="1128"/>
  <unicode hex="0065"/>
  <outline>
    <contour>
      <point x="601" y="-16" type="curve" smooth="yes"/>
      <point x="742" y="-16"/>
      <point x="911" y="27"/>
      <point x="986" y="89" type="curve"/>
      <point x="954" y="186" type="line"/>
      <point x="894" y="147"/>
      <point x="747" y="110"/>
      <point x="644" y="110" type="curve" smooth="yes"/>
      <point x="433" y="110"/>
      <point x="278" y="220"/>
      <point x="268" y="513" type="curve" smooth="yes"/>
      <point x="259" y="887"/>
      <point x="407" y="1037"/>
      <point x="605" y="1037" type="curve" smooth="yes"/>
      <point x="812" y="1037"/>
      <point x="879" y="874"/>
      <point x="867" y="665" type="curve"/>
      <point x="220" y="665" type="line"/>
      <point x="205" y="553" type="line"/>
      <point x="1015" y="553" type="line"/>
      <point x="1024" y="600"/>
      <point x="1024" y="655"/>
      <point x="1024" y="728" type="curve" smooth="yes"/>
      <point x="1017" y="988"/>
      <point x="856" y="1159"/>
      <point x="615" y="1156" type="curve" smooth="yes"/>
      <point x="287" y="1152"/>
      <point x="104" y="908"/>
      <point x="104" y="565" type="curve" smooth="yes"/>
      <point x="104" y="200"/>
      <point x="281" y="-16"/>
    </contour>
    <contour>
      <point x="607" y="-170" type="move" name="btm"/>
    </contour>
    <contour>
      <point x="603" y="1700" type="move" name="top"/>
    </contour>
  </outline>
</glyph>
<glyph name="f" format="1">
  <advance width="801"/>
  <unicode hex="0066"/>
  <outline>
    <contour>
      <point x="272" y="0" type="line"/>
      <point x="439" y="0" type="line"/>
      <point x="439" y="1014" type="line"/>
      <point x="742" y="1014" type="line"/>
      <point x="742" y="1140" type="line"/>
      <point x="439" y="1140" type="line"/>
      <point x="439" y="1268" type="line" smooth="yes"/>
      <point x="439" y="1453"/>
      <point x="521" y="1548"/>
      <point x="641" y="1548" type="curve" smooth="yes"/>
      <point x="720" y="1548"/>
      <point x="764" y="1541"/>
      <point x="800" y="1528" type="curve"/>
      <point x="800" y="1661" type="line"/>
      <point x="779" y="1669"/>
      <point x="725" y="1682"/>
      <point x="664" y="1682" type="curve" smooth="yes"/>
      <point x="482" y="1682"/>
      <point x="272" y="1570"/>
      <point x="272" y="1232" type="curve" smooth="yes"/>
      <point x="272" y="1140" type="line"/>
      <point x="76" y="1106" type="line"/>
      <point x="76" y="1014" type="line"/>
      <point x="272" y="1014" type="line"/>
    </contour>
    <contour>
      <point x="385" y="-170" type="move" name="btm"/>
    </contour>
    <contour>
      <point x="387" y="2058" type="move" name="top"/>
    </contour>
  </outline>
</glyph>
<glyph name="k" format="1">
  <advance width="1166"/>
  <unicode hex="006B"/>
  <outline>
    <contour>
      <point x="1085" y="1139" type="line"/>
      <point x="887" y="1139" type="line"/>
      <point x="303" y="536" type="line"/>
      <point x="348" y="508" type="line"/>
      <point x="354" y="708" type="line"/>
      <point x="354" y="1661" type="line"/>
      <point x="188" y="1661" type="line"/>
      <point x="188" y="560" type="line"/>
      <point x="188" y="0" type="line"/>
      <point x="354" y="0" type="line"/>
      <point x="354" y="224" type="line"/>
      <point x="350" y="425" type="line"/>
      <point x="331" y="382" type="line"/>
    </contour>
    <contour>
      <point x="515" y="602" type="line"/>
      <point x="943" y="0" type="line"/>
      <point x="1134" y="0" type="line"/>
      <point x="629" y="708" type="line"/>
    </contour>
    <contour>
      <point x="609" y="-170" type="move" name="btm"/>
    </contour>
    <contour>
      <point x="671" y="1700" type="move" name="top"/>
    </contour>
  </outline>
</glyph>
<glyph name="l" format="1">
  <advance width="594"/>
  <unicode hex="006C"/>
  <outline>
    <contour>
      <point x="214" y="0" type="line"/>
      <point x="381" y="0" type="line"/>
      <point x="381" y="1664" type="line"/>
      <point x="214" y="1664" type="line"/>
    </contour>
    <contour>
      <point x="283" y="-170" type="move" name="btm"/>
    </contour>
    <contour>
      <point x="300" y="1700" type="move" name="top"/>
    </contour>
  </outline>
</glyph>
<glyph name="p" format="1">
  <advance width="1247"/>
  <unicode hex="0070"/>
  <outline>
    <contour>
      <point x="187" y="-506" type="line"/>
      <point x="353" y="-506" type="line"/>
      <point x="353" y="-139" type="line"/>
      <point x="350" y="49" type="line"/>
      <point x="353" y="71" type="line"/>
      <point x="353" y="975" type="line"/>
      <point x="338" y="995" type="line"/>
      <point x="337" y="1140" type="line"/>
      <point x="187" y="1140" type="line"/>
    </contour>
    <contour>
      <point x="573" y="-16" type="curve" smooth="yes"/>
      <point x="917" y="-16"/>
      <point x="1144" y="243"/>
      <point x="1144" y="607" type="curve" smooth="yes"/>
      <point x="1144" y="993"/>
      <point x="928" y="1156"/>
      <point x="694" y="1156" type="curve" smooth="yes"/>
      <point x="483" y="1156"/>
      <point x="374" y="1044"/>
      <point x="325" y="994" type="curve"/>
      <point x="352" y="908" type="line"/>
      <point x="407" y="956"/>
      <point x="516" y="1025"/>
      <point x="649" y="1025" type="curve" smooth="yes"/>
      <point x="854" y="1025"/>
      <point x="977" y="881"/>
      <point x="974" y="584" type="curve" smooth="yes"/>
      <point x="970" y="280"/>
      <point x="807" y="106"/>
      <point x="588" y="106" type="curve" smooth="yes"/>
      <point x="465" y="106"/>
      <point x="390" y="131"/>
      <point x="353" y="163" type="curve"/>
      <point x="290" y="54" type="line"/>
      <point x="316" y="31"/>
      <point x="425" y="-16"/>
    </contour>
    <contour>
      <point x="630" y="-170" type="move" name="btm"/>
    </contour>
    <contour>
      <point x="696" y="1700" type="move" name="top"/>
    </contour>
  </outline>
</glyph>
<glyph name="t" format="1">
  <advance width="849"/>
  <unicode hex="0074"/>
  <outline>
    <contour>
      <point x="500" y="-16" type="curve" smooth="yes"/>
      <point x="604" y="-16"/>
      <point x="743" y="31"/>
      <point x="801" y="78" type="curve"/>
      <point x="772" y="175" type="line"/>
      <point x="734" y="149"/>
      <point x="626" y="118"/>
      <point x="558" y="118" type="curve" smooth="yes"/>
      <point x="445" y="118"/>
      <point x="406" y="138"/>
      <point x="406" y="364" type="curve" smooth="yes"/>
      <point x="406" y="1014" type="line"/>
      <point x="760" y="1014" type="line"/>
      <point x="760" y="1140" type="line"/>
      <point x="406" y="1140" type="line"/>
      <point x="406" y="1400" type="line"/>
      <point x="306" y="1400" type="line"/>
      <point x="285" y="1333"/>
      <point x="269" y="1212"/>
      <point x="256" y="1178" type="curve" smooth="yes"/>
      <point x="238" y="1130"/>
      <point x="155" y="1127"/>
      <point x="81" y="1105" type="curve"/>
      <point x="81" y="1014" type="line"/>
      <point x="240" y="1014" type="line"/>
      <point x="240" y="270" type="line" smooth="yes"/>
      <point x="240" y="26"/>
      <point x="360" y="-16"/>
    </contour>
    <contour>
      <point x="453" y="-170" type="move" name="btm"/>
    </contour>
    <contour>
      <point x="352" y="1870" type="move" name="top"/>
    </contour>
  </outline>
</glyph>
<glyph name="u" format="1">
  <advance width="1249"/>
  <unicode hex="0075"/>
  <outline>
    <contour>
      <point x="517" y="-16" type="curve" smooth="yes"/>
      <point x="651" y="-16"/>
      <point x="812" y="44"/>
      <point x="918" y="119" type="curve"/>
      <point x="916" y="147" type="line"/>
      <point x="916" y="56" type="line" smooth="yes"/>
      <point x="916" y="-5"/>
      <point x="947" y="-12"/>
      <point x="1000" y="-12" type="curve" smooth="yes"/>
      <point x="1064" y="-12" type="line"/>
      <point x="1064" y="1140" type="line"/>
      <point x="897" y="1140" type="line"/>
      <point x="897" y="229" type="line"/>
      <point x="833" y="181"/>
      <point x="699" y="122"/>
      <point x="583" y="122" type="curve" smooth="yes"/>
      <point x="406" y="122"/>
      <point x="349" y="179"/>
      <point x="349" y="464" type="curve" smooth="yes"/>
      <point x="349" y="1140" type="line"/>
      <point x="183" y="1140" type="line"/>
      <point x="183" y="471" type="line" smooth="yes"/>
      <point x="183" y="182"/>
      <point x="223" y="-16"/>
    </contour>
    <contour>
      <point x="607" y="-170" type="move" name="btm"/>
    </contour>
    <contour>
      <point x="643" y="1700" type="move" name="top"/>
    </contour>
  </outline>
</glyph>
<glyph name="y" format="1">
  <advance width="1107"/>
  <unicode hex="0079"/>
  <outline>
    <contour>
      <point x="120" y="-493" type="line"/>
      <point x="132" y="-501"/>
      <point x="201" y="-507"/>
      <point x="231" y="-507" type="curve" smooth="yes"/>
      <point x="262" y="-507"/>
      <point x="305" y="-501"/>
      <point x="334" y="-494" type="curve" smooth="yes"/>
      <point x="484" y="-452"/>
      <point x="585" y="-302"/>
      <point x="675" y="-29" type="curve" smooth="yes"/>
      <point x="1067" y="1140" type="line"/>
      <point x="887" y="1140" type="line"/>
      <point x="650" y="358" type="line"/>
      <point x="561" y="55" type="line"/>
      <point x="611" y="55" type="line"/>
      <point x="508" y="358" type="line"/>
      <point x="234" y="1140" type="line"/>
      <point x="56" y="1140" type="line"/>
      <point x="484" y="0" type="line"/>
      <point x="552" y="0" type="line"/>
      <point x="539" y="23" type="line"/>
      <point x="464" y="-291"/>
      <point x="337" y="-368"/>
      <point x="219" y="-368" type="curve" smooth="yes"/>
      <point x="190" y="-368"/>
      <point x="142" y="-363"/>
      <point x="120" y="-356" type="curve"/>
    </contour>
    <contour>
      <point x="555" y="-170" type="move" name="btm"/>
    </contour>
    <contour>
      <point x="582" y="1700" type="move" name="top"/>
    </contour>
  </outline>
</glyph>
<glyph name="braceleft" format="1">
  <advance width="986"/>
  <unicode hex="007B"/>
  <outline>
    <contour>
      <point x="369" y="2" type="line"/>
      <point x="369" y="-150"/>
      <point x="404" y="-195"/>
      <point x="526" y="-195" type="curve" smooth="yes"/>
      <point x="635" y="-195"/>
      <point x="737" y="-187"/>
      <point x="823" y="-167" type="curve"/>
      <point x="823" y="-82" type="line"/>
      <point x="528" y="-82" type="line"/>
      <point x="528" y="582" type="line" smooth="yes"/>
      <point x="528" y="611"/>
      <point x="516" y="636"/>
      <point x="494" y="658" type="curve" smooth="yes"/>
      <point x="456" y="698"/>
      <point x="323" y="765"/>
      <point x="259" y="787" type="curve"/>
      <point x="259" y="768" type="line"/>
      <point x="322" y="794"/>
      <point x="454" y="856"/>
      <point x="491" y="892" type="curve" smooth="yes"/>
      <point x="516" y="913"/>
      <point x="528" y="939"/>
      <point x="528" y="972" type="curve" smooth="yes"/>
      <point x="528" y="1629" type="line"/>
      <point x="823" y="1629" type="line"/>
      <point x="823" y="1721" type="line"/>
      <point x="742" y="1730"/>
      <point x="635" y="1741"/>
      <point x="526" y="1741" type="curve" smooth="yes"/>
      <point x="403" y="1741"/>
      <point x="369" y="1696"/>
      <point x="369" y="1544" type="curve" smooth="yes"/>
      <point x="369" y="969" type="line" smooth="yes"/>
      <point x="369" y="920"/>
      <point x="255" y="879"/>
      <point x="118" y="834" type="curve"/>
      <point x="118" y="724" type="line"/>
      <point x="246" y="687"/>
      <point x="369" y="631"/>
      <point x="369" y="585" type="curve" smooth="yes"/>
    </contour>
  </outline>
</glyph>
<glyph name="bar" format="1">
  <advance width="842"/>
  <unicode hex="007C"/>
  <outline>
    <contour>
      <point x="344" y="-187" type="line"/>
      <point x="498" y="-187" type="line"/>
      <point x="498" y="1780" type="line"/>
      <point x="344" y="1780" type="line"/>
    </contour>
  </outline>
</glyph>
<glyph name="asciitilde" format="1">
  <advance width="1438"/>
  <unicode hex="007E"/>
  <outline>
    <contour>
      <point x="310" y="707" type="line"/>
      <point x="356" y="772"/>
      <point x="421" y="833"/>
      <point x="523" y="833" type="curve" smooth="yes"/>
      <point x="679" y="833"/>
      <point x="713" y="660"/>
      <point x="907" y="660" type="curve" smooth="yes"/>
      <point x="1068" y="660"/>
      <point x="1176" y="759"/>
      <point x="1215" y="852" type="curve"/>
      <point x="1136" y="928" type="line"/>
      <point x="1089" y="862"/>
      <point x="1018" y="803"/>
      <point x="916" y="803" type="curve" smooth="yes"/>
      <point x="763" y="803"/>
      <point x="723" y="975"/>
      <point x="529" y="975" type="curve" smooth="yes"/>
      <point x="372" y="975"/>
      <point x="256" y="854"/>
      <point x="222" y="776" type="curve"/>
    </contour>
  </outline>
</glyph>
<glyph name="sterling" format="1">
  <advance width="1546"/>
  <unicode hex="00A3"/>
  <outline>
    <contour>
      <point x="141" y="54" type="curve" smooth="yes"/>
      <point x="141" y="15"/>
      <point x="190" y="-10"/>
      <point x="227" y="-10" type="curve" smooth="yes"/>
      <point x="292" y="-10"/>
      <point x="357" y="29"/>
      <point x="391" y="68" type="curve"/>
      <point x="527" y="110"/>
      <point x="697" y="-24"/>
      <point x="982" y="-24" type="curve" smooth="yes"/>
      <point x="1276" y="-24"/>
      <point x="1393" y="116"/>
      <point x="1393" y="317" type="curve" smooth="yes"/>
      <point x="1393" y="424"/>
      <point x="1327" y="524"/>
      <point x="1265" y="561" type="curve"/>
      <point x="1146" y="500" type="line"/>
      <point x="1200" y="473"/>
      <point x="1235" y="391"/>
      <point x="1235" y="327" type="curve" smooth="yes"/>
      <point x="1235" y="189"/>
      <point x="1161" y="96"/>
      <point x="962" y="96" type="curve" smooth="yes"/>
      <point x="762" y="96"/>
      <point x="656" y="174"/>
      <point x="504" y="169" type="curve"/>
      <point x="566" y="233"/>
      <point x="612" y="377"/>
      <point x="610" y="659" type="curve" smooth="yes"/>
      <point x="609" y="1035" type="line" smooth="yes"/>
      <point x="607" y="1324"/>
      <point x="750" y="1411"/>
      <point x="888" y="1411" type="curve" smooth="yes"/>
      <point x="1021" y="1411"/>
      <point x="1097" y="1372"/>
      <point x="1154" y="1322" type="curve"/>
      <point x="1234" y="1444" type="line"/>
      <point x="1164" y="1499"/>
      <point x="1063" y="1538"/>
      <point x="905" y="1538" type="curve" smooth="yes"/>
      <point x="618" y="1538"/>
      <point x="442" y="1338"/>
      <point x="442" y="1057" type="curve" smooth="yes"/>
      <point x="442" y="465" type="line" smooth="yes"/>
      <point x="442" y="321"/>
      <point x="374" y="233"/>
      <point x="353" y="194" type="curve"/>
      <point x="207" y="186"/>
      <point x="141" y="126"/>
    </contour>
    <contour>
      <point x="259" y="764" type="line"/>
      <point x="994" y="764" type="line"/>
      <point x="994" y="880" type="line"/>
      <point x="259" y="880" type="line"/>
    </contour>
  </outline>
</glyph>
<glyph name="yen" format="1">
  <advance width="1542"/>
  <unicode hex="00A5"/>
  <outline>
    <contour>
      <point x="855" y="0" type="line"/>
      <point x="855" y="823" type="line"/>
      <point x="819" y="706" type="line"/>
      <point x="1356" y="1522" type="line"/>
      <point x="1178" y="1522" type="line"/>
      <point x="842" y="993" type="line"/>
      <point x="756" y="814" type="line"/>
      <point x="792" y="814" type="line"/>
      <point x="700" y="988" type="line"/>
      <point x="370" y="1522" type="line"/>
      <point x="188" y="1522" type="line"/>
      <point x="727" y="692" type="line"/>
      <point x="689" y="823" type="line"/>
      <point x="689" y="0" type="line"/>
    </contour>
    <contour>
      <point x="283" y="689" type="line"/>
      <point x="1245" y="689" type="line"/>
      <point x="1245" y="799" type="line"/>
      <point x="283" y="799" type="line"/>
    </contour>
    <contour>
      <point x="283" y="322" type="line"/>
      <point x="1245" y="322" type="line"/>
      <point x="1245" y="432" type="line"/>
      <point x="283" y="432" type="line"/>
    </contour>
  </outline>
</glyph>
<glyph name="section" format="1">
  <advance width="1358"/>
  <unicode hex="00A7"/>
  <outline>
    <contour>
      <point x="230" y="1342" type="curve" smooth="yes"/>
      <point x="230" y="902"/>
      <point x="992" y="981"/>
      <point x="992" y="605" type="curve" smooth="yes"/>
      <point x="992" y="516"/>
      <point x="935" y="401"/>
      <point x="888" y="347" type="curve"/>
      <point x="965" y="299" type="line"/>
      <point x="1067" y="378"/>
      <point x="1144" y="495"/>
      <point x="1144" y="632" type="curve" smooth="yes"/>
      <point x="1144" y="1071"/>
      <point x="383" y="1027"/>
      <point x="383" y="1360" type="curve" smooth="yes"/>
      <point x="383" y="1500"/>
      <point x="535" y="1546"/>
      <point x="696" y="1547" type="curve" smooth="yes"/>
      <point x="875" y="1548"/>
      <point x="981" y="1504"/>
      <point x="1027" y="1473" type="curve"/>
      <point x="1060" y="1600" type="line"/>
      <point x="1003" y="1634"/>
      <point x="884" y="1673"/>
      <point x="699" y="1673" type="curve" smooth="yes"/>
      <point x="492" y="1673"/>
      <point x="230" y="1605"/>
    </contour>
    <contour>
      <point x="1136" y="140" type="curve" smooth="yes"/>
      <point x="1136" y="541"/>
      <point x="371" y="467"/>
      <point x="371" y="810" type="curve" smooth="yes"/>
      <point x="371" y="911"/>
      <point x="439" y="1024"/>
      <point x="476" y="1071" type="curve"/>
      <point x="396" y="1119" type="line"/>
      <point x="296" y="1041"/>
      <point x="218" y="921"/>
      <point x="218" y="783" type="curve" smooth="yes"/>
      <point x="218" y="373"/>
      <point x="984" y="416"/>
      <point x="984" y="125" type="curve" smooth="yes"/>
      <point x="984" y="-16"/>
      <point x="821" y="-66"/>
      <point x="651" y="-67" type="curve" smooth="yes"/>
      <point x="459" y="-68"/>
      <point x="314" y="-12"/>
      <point x="260" y="27" type="curve"/>
      <point x="227" y="-100" type="line"/>
      <point x="291" y="-143"/>
      <point x="452" y="-193"/>
      <point x="648" y="-193" type="curve" smooth="yes"/>
      <point x="865" y="-193"/>
      <point x="1136" y="-119"/>
    </contour>
  </outline>
</glyph>
<glyph name="registered" format="1">
  <advance width="2133"/>
  <unicode hex="00AE"/>
  <outline>
    <contour>
      <point x="204" y="965" type="curve" smooth="yes"/>
      <point x="204" y="483"/>
      <point x="586" y="95"/>
      <point x="1066" y="95" type="curve" smooth="yes"/>
      <point x="1546" y="95"/>
      <point x="1929" y="483"/>
      <point x="1929" y="965" type="curve" smooth="yes"/>
      <point x="1929" y="1445"/>
      <point x="1546" y="1831"/>
      <point x="1066" y="1831" type="curve" smooth="yes"/>
      <point x="586" y="1831"/>
      <point x="204" y="1445"/>
    </contour>
    <contour>
      <point x="313" y="965" type="curve" smooth="yes"/>
      <point x="313" y="1389"/>
      <point x="638" y="1734"/>
      <point x="1066" y="1734" type="curve" smooth="yes"/>
      <point x="1494" y="1734"/>
      <point x="1819" y="1389"/>
      <point x="1819" y="965" type="curve" smooth="yes"/>
      <point x="1819" y="539"/>
      <point x="1494" y="194"/>
      <point x="1066" y="194" type="curve" smooth="yes"/>
      <point x="638" y="194"/>
      <point x="313" y="539"/>
    </contour>
    <contour>
      <point x="752" y="482" type="line"/>
      <point x="887" y="482" type="line"/>
      <point x="887" y="863" type="line"/>
      <point x="923" y="863"/>
      <point x="1040" y="863"/>
      <point x="1059" y="863" type="curve"/>
      <point x="1165" y="831"/>
      <point x="1211" y="675"/>
      <point x="1258" y="588" type="curve" smooth="yes"/>
      <point x="1278" y="547"/>
      <point x="1295" y="514"/>
      <point x="1320" y="483" type="curve"/>
      <point x="1476" y="482" type="line"/>
      <point x="1429" y="551"/>
      <point x="1411" y="575"/>
      <point x="1393" y="608" type="curve" smooth="yes"/>
      <point x="1342" y="695"/>
      <point x="1301" y="827"/>
      <point x="1213" y="883" type="curve"/>
      <point x="1375" y="920"/>
      <point x="1433" y="1035"/>
      <point x="1433" y="1181" type="curve" smooth="yes"/>
      <point x="1433" y="1330"/>
      <point x="1325" y="1450"/>
      <point x="1076" y="1450" type="curve" smooth="yes"/>
      <point x="991" y="1450"/>
      <point x="909" y="1444"/>
      <point x="826" y="1444" type="curve" smooth="yes"/>
      <point x="820" y="1444"/>
      <point x="758" y="1444"/>
      <point x="752" y="1444" type="curve"/>
    </contour>
    <contour>
      <point x="887" y="964" type="curve"/>
      <point x="887" y="1339" type="line"/>
      <point x="954" y="1346"/>
      <point x="992" y="1348"/>
      <point x="1039" y="1349" type="curve" smooth="yes"/>
      <point x="1226" y="1353"/>
      <point x="1293" y="1280"/>
      <point x="1293" y="1164" type="curve" smooth="yes"/>
      <point x="1293" y="1023"/>
      <point x="1211" y="963"/>
      <point x="1061" y="961" type="curve" smooth="yes"/>
      <point x="1036" y="961"/>
      <point x="909" y="962"/>
    </contour>
  </outline>
</glyph>
<glyph name="degree" format="1">
  <advance width="909"/>
  <unicode hex="00B0"/>
  <outline>
    <contour>
      <point x="121" y="1278" type="curve" smooth="yes"/>
      <point x="121" y="1090"/>
      <point x="270" y="947"/>
      <point x="454" y="947" type="curve" smooth="yes"/>
      <point x="643" y="947"/>
      <point x="787" y="1086"/>
      <point x="787" y="1278" type="curve" smooth="yes"/>
      <point x="787" y="1467"/>
      <point x="640" y="1609"/>
      <point x="454" y="1609" type="curve" smooth="yes"/>
      <point x="266" y="1609"/>
      <point x="121" y="1469"/>
    </contour>
    <contour>
      <point x="232" y="1278" type="curve" smooth="yes"/>
      <point x="232" y="1409"/>
      <point x="329" y="1505"/>
      <point x="454" y="1505" type="curve" smooth="yes"/>
      <point x="578" y="1505"/>
      <point x="677" y="1407"/>
      <point x="677" y="1278" type="curve" smooth="yes"/>
      <point x="677" y="1146"/>
      <point x="580" y="1050"/>
      <point x="454" y="1050" type="curve" smooth="yes"/>
      <point x="331" y="1050"/>
      <point x="232" y="1149"/>
    </contour>
  </outline>
</glyph>
<glyph name="acute" format="1">
  <advance width="557"/>
  <unicode hex="00B4"/>
  <outline>
    <contour>
      <point x="136" y="1315" type="line"/>
      <point x="224" y="1372"/>
      <point x="439" y="1577"/>
      <point x="507" y="1678" type="curve"/>
      <point x="387" y="1781" type="line"/>
      <point x="284" y="1639"/>
      <point x="169" y="1513"/>
      <point x="50" y="1383" type="curve"/>
    </contour>
    <contour>
      <point x="171" y="1700" type="move" name="_top"/>
    </contour>
  </outline>
</glyph>
<glyph name="micro" format="1">
  <advance width="1359"/>
  <unicode hex="00B5"/>
  <outline>
    <contour>
      <point x="216" y="-371" type="line"/>
      <point x="372" y="-371" type="line"/>
      <point x="345" y="184" type="line"/>
      <point x="319" y="173" type="line"/>
      <point x="378" y="21"/>
      <point x="494" y="-16"/>
      <point x="631" y="-16" type="curve" smooth="yes"/>
      <point x="793" y="-16"/>
      <point x="904" y="86"/>
      <point x="955" y="138" type="curve"/>
      <point x="951" y="28"/>
      <point x="994" y="-13"/>
      <point x="1063" y="-13" type="curve" smooth="yes"/>
      <point x="1154" y="-13"/>
      <point x="1237" y="58"/>
      <point x="1254" y="87" type="curve"/>
      <point x="1230" y="163" type="line"/>
      <point x="1189" y="128"/>
      <point x="1156" y="121"/>
      <point x="1140" y="121" type="curve" smooth="yes"/>
      <point x="1113" y="121"/>
      <point x="1099" y="140"/>
      <point x="1099" y="228" type="curve" smooth="yes"/>
      <point x="1099" y="1140" type="line"/>
      <point x="933" y="1140" type="line"/>
      <point x="933" y="235" type="line"/>
      <point x="885" y="197"/>
      <point x="761" y="115"/>
      <point x="645" y="115" type="curve" smooth="yes"/>
      <point x="472" y="116"/>
      <point x="382" y="199"/>
      <point x="382" y="384" type="curve" smooth="yes"/>
      <point x="382" y="1140" type="line"/>
      <point x="216" y="1140" type="line"/>
    </contour>
  </outline>
</glyph>
<glyph name="ordmasculine" format="1">
  <advance width="1033"/>
  <unicode hex="00BA"/>
  <outline>
    <contour>
      <point x="114" y="1148" type="curve" smooth="yes"/>
      <point x="111" y="861"/>
      <point x="260" y="675"/>
      <point x="511" y="675" type="curve" smooth="yes"/>
      <point x="711" y="675"/>
      <point x="914" y="803"/>
      <point x="919" y="1130" type="curve" smooth="yes"/>
      <point x="923" y="1410"/>
      <point x="784" y="1597"/>
      <point x="533" y="1597" type="curve" smooth="yes"/>
      <point x="340" y="1597"/>
      <point x="119" y="1474"/>
    </contour>
    <contour>
      <point x="273" y="1148" type="curve" smooth="yes"/>
      <point x="274" y="1391"/>
      <point x="390" y="1483"/>
      <point x="525" y="1485" type="curve" smooth="yes"/>
      <point x="677" y="1486"/>
      <point x="762" y="1350"/>
      <point x="761" y="1129" type="curve" smooth="yes"/>
      <point x="759" y="887"/>
      <point x="660" y="790"/>
      <point x="519" y="789" type="curve" smooth="yes"/>
      <point x="365" y="787"/>
      <point x="272" y="928"/>
    </contour>
  </outline>
</glyph>
<glyph name="Eth" format="1">
  <advance width="1479"/>
  <unicode hex="00D0"/>
  <outline>
    <contour>
      <point x="62" y="737" type="line"/>
      <point x="809" y="737" type="line"/>
      <point x="809" y="851" type="line"/>
      <point x="62" y="851" type="line"/>
    </contour>
    <component base="D"/>
  </outline>
</glyph>
<glyph name="multiply" format="1">
  <advance width="1370"/>
  <unicode hex="00D7"/>
  <outline>
    <contour>
      <point x="250" y="424" type="line"/>
      <point x="349" y="326" type="line"/>
      <point x="686" y="680" type="line"/>
      <point x="1022" y="326" type="line"/>
      <point x="1121" y="424" type="line"/>
      <point x="773" y="774" type="line"/>
      <point x="1121" y="1127" type="line"/>
      <point x="1022" y="1224" type="line"/>
      <point x="686" y="862" type="line"/>
      <point x="349" y="1224" type="line"/>
      <point x="250" y="1127" type="line"/>
      <point x="598" y="771" type="line"/>
    </contour>
  </outline>
</glyph>
<glyph name="ae" format="1">
  <advance width="1826"/>
  <unicode hex="00E6"/>
  <outline>
    <contour>
      <point x="1298" y="-16" type="curve" smooth="yes"/>
      <point x="1440" y="-16"/>
      <point x="1610" y="27"/>
      <point x="1686" y="89" type="curve"/>
      <point x="1653" y="186" type="line"/>
      <point x="1593" y="147"/>
      <point x="1442" y="111"/>
      <point x="1340" y="111" type="curve" smooth="yes"/>
      <point x="1129" y="111"/>
      <point x="976" y="215"/>
      <point x="966" y="513" type="curve"/>
      <point x="957" y="887"/>
      <point x="1105" y="1037"/>
      <point x="1302" y="1037" type="curve" smooth="yes"/>
      <point x="1509" y="1037"/>
      <point x="1576" y="874"/>
      <point x="1564" y="665" type="curve"/>
      <point x="918" y="665" type="line"/>
      <point x="903" y="553" type="line"/>
      <point x="1713" y="553" type="line"/>
      <point x="1722" y="600"/>
      <point x="1721" y="655"/>
      <point x="1721" y="728" type="curve"/>
      <point x="1715" y="988"/>
      <point x="1554" y="1159"/>
      <point x="1313" y="1156" type="curve" smooth="yes"/>
      <point x="985" y="1152"/>
      <point x="801" y="908"/>
      <point x="801" y="565" type="curve" smooth="yes"/>
      <point x="801" y="188"/>
      <point x="979" y="-16"/>
    </contour>
    <contour>
      <point x="110" y="301" type="curve" smooth="yes"/>
      <point x="110" y="103"/>
      <point x="259" y="-16"/>
      <point x="461" y="-16" type="curve" smooth="yes"/>
      <point x="662" y="-16"/>
      <point x="818" y="86"/>
      <point x="912" y="218" type="curve"/>
      <point x="887" y="268" type="line"/>
      <point x="852" y="295" type="line"/>
      <point x="809" y="217"/>
      <point x="660" y="109"/>
      <point x="503" y="109" type="curve" smooth="yes"/>
      <point x="340" y="109"/>
      <point x="278" y="197"/>
      <point x="278" y="314" type="curve" smooth="yes"/>
      <point x="278" y="412"/>
      <point x="330" y="478"/>
      <point x="448" y="522" type="curve" smooth="yes"/>
      <point x="537" y="560"/>
      <point x="685" y="575"/>
      <point x="801" y="575" type="curve"/>
      <point x="837" y="635" type="line"/>
      <point x="799" y="682" type="line"/>
      <point x="668" y="682"/>
      <point x="489" y="667"/>
      <point x="356" y="615" type="curve" smooth="yes"/>
      <point x="202" y="556"/>
      <point x="110" y="451"/>
    </contour>
    <contour>
      <point x="204" y="931" type="line"/>
      <point x="269" y="974"/>
      <point x="432" y="1030"/>
      <point x="547" y="1030" type="curve" smooth="yes"/>
      <point x="699" y="1030"/>
      <point x="799" y="1003"/>
      <point x="799" y="801" type="curve" smooth="yes"/>
      <point x="799" y="581" type="line"/>
      <point x="949" y="582" type="line"/>
      <point x="949" y="794" type="line" smooth="yes"/>
      <point x="949" y="1090"/>
      <point x="811" y="1157"/>
      <point x="588" y="1157" type="curve" smooth="yes"/>
      <point x="405" y="1157"/>
      <point x="203" y="1069"/>
      <point x="162" y="1043" type="curve"/>
    </contour>
    <contour>
      <point x="920" y="1700" type="move" name="top"/>
    </contour>
  </outline>
</glyph>
<glyph name="idieresis" format="1">
  <advance width="588"/>
  <unicode hex="00EF"/>
  <outline>
    <contour>
      <point x="83" y="1408" type="curve" smooth="yes"/>
      <point x="144" y="1408"/>
      <point x="199" y="1454"/>
      <point x="199" y="1528" type="curve" smooth="yes"/>
      <point x="199" y="1590"/>
      <point x="170" y="1633"/>
      <point x="101" y="1633" type="curve" smooth="yes"/>
      <point x="42" y="1633"/>
      <point x="-17" y="1584"/>
      <point x="-17" y="1514" type="curve" smooth="yes"/>
      <point x="-17" y="1446"/>
      <point x="27" y="1408"/>
    </contour>
    <contour>
      <point x="489" y="1408" type="curve" smooth="yes"/>
      <point x="551" y="1408"/>
      <point x="606" y="1454"/>
      <point x="606" y="1528" type="curve" smooth="yes"/>
      <point x="606" y="1590"/>
      <point x="576" y="1633"/>
      <point x="507" y="1633" type="curve" smooth="yes"/>
      <point x="447" y="1633"/>
      <point x="389" y="1584"/>
      <point x="389" y="1514" type="curve" smooth="yes"/>
      <point x="389" y="1446"/>
      <point x="433" y="1408"/>
    </contour>
    <component base="dotlessi"/>
  </outline>
</glyph>
<glyph name="eth" format="1">
  <advance width="1207"/>
  <unicode hex="00F0"/>
  <outline>
    <contour>
      <point x="616" y="-27" type="curve" smooth="yes"/>
      <point x="910" y="-23"/>
      <point x="1116" y="182"/>
      <point x="1116" y="612" type="curve" smooth="yes"/>
      <point x="1116" y="1016"/>
      <point x="951" y="1352"/>
      <point x="662" y="1567" type="curve" smooth="yes"/>
      <point x="650" y="1576"/>
      <point x="635" y="1588"/>
      <point x="621" y="1598" type="curve" smooth="yes"/>
      <point x="535" y="1656"/>
      <point x="409" y="1721"/>
      <point x="285" y="1759" type="curve"/>
      <point x="245" y="1662" type="line"/>
      <point x="331" y="1635"/>
      <point x="440" y="1577"/>
      <point x="523" y="1519" type="curve" smooth="yes"/>
      <point x="535" y="1511"/>
      <point x="548" y="1501"/>
      <point x="560" y="1492" type="curve" smooth="yes"/>
      <point x="742" y="1356"/>
      <point x="881" y="1144"/>
      <point x="918" y="903" type="curve"/>
      <point x="977" y="881" type="line"/>
      <point x="932" y="1040"/>
      <point x="791" y="1154"/>
      <point x="620" y="1155" type="curve" smooth="yes"/>
      <point x="322" y="1156"/>
      <point x="109" y="935"/>
      <point x="109" y="557" type="curve" smooth="yes"/>
      <point x="109" y="195"/>
      <point x="309" y="-32"/>
    </contour>
    <contour>
      <point x="622" y="88" type="curve" smooth="yes"/>
      <point x="420" y="88"/>
      <point x="275" y="259"/>
      <point x="275" y="563" type="curve" smooth="yes"/>
      <point x="275" y="845"/>
      <point x="404" y="1030"/>
      <point x="626" y="1030" type="curve" smooth="yes"/>
      <point x="798" y="1030"/>
      <point x="912" y="948"/>
      <point x="940" y="851" type="curve"/>
      <point x="951" y="753"/>
      <point x="949" y="655"/>
      <point x="949" y="574" type="curve" smooth="yes"/>
      <point x="949" y="242"/>
      <point x="793" y="88"/>
    </contour>
    <contour>
      <point x="430" y="1323" type="line"/>
      <point x="594" y="1508" type="line"/>
      <point x="613" y="1534" type="line"/>
      <point x="656" y="1570"/>
      <point x="788" y="1724"/>
      <point x="788" y="1724" type="curve"/>
      <point x="698" y="1793" type="line"/>
      <point x="698" y="1793"/>
      <point x="567" y="1633"/>
      <point x="530" y="1600" type="curve"/>
      <point x="510" y="1577" type="line"/>
      <point x="341" y="1393" type="line"/>
    </contour>
  </outline>
</glyph>
<glyph name="divide" format="1">
  <advance width="1393"/>
  <unicode hex="00F7"/>
  <outline>
    <contour>
      <point x="694" y="1058" type="curve" smooth="yes"/>
      <point x="759" y="1058"/>
      <point x="819" y="1107"/>
      <point x="819" y="1186" type="curve" smooth="yes"/>
      <point x="819" y="1252"/>
      <point x="784" y="1299"/>
      <point x="711" y="1299" type="curve" smooth="yes"/>
      <point x="648" y="1299"/>
      <point x="587" y="1246"/>
      <point x="587" y="1170" type="curve" smooth="yes"/>
      <point x="587" y="1098"/>
      <point x="635" y="1058"/>
    </contour>
    <contour>
      <point x="693" y="261" type="curve" smooth="yes"/>
      <point x="759" y="261"/>
      <point x="818" y="310"/>
      <point x="818" y="389" type="curve" smooth="yes"/>
      <point x="818" y="454"/>
      <point x="783" y="501"/>
      <point x="710" y="501" type="curve" smooth="yes"/>
      <point x="647" y="501"/>
      <point x="586" y="448"/>
      <point x="586" y="373" type="curve" smooth="yes"/>
      <point x="586" y="301"/>
      <point x="635" y="261"/>
    </contour>
    <contour>
      <point x="232" y="709" type="line"/>
      <point x="1161" y="709" type="line"/>
      <point x="1161" y="839" type="line"/>
      <point x="232" y="839" type="line"/>
    </contour>
  </outline>
</glyph>
<glyph name="thorn" format="1">
  <advance width="1248"/>
  <unicode hex="00FE"/>
  <outline>
    <contour>
      <point x="188" y="64" type="line"/>
      <point x="188" y="-507" type="line"/>
      <point x="355" y="-507" type="line"/>
      <point x="355" y="-151" type="line"/>
      <point x="344" y="29" type="line"/>
    </contour>
    <component base="b" xOffset="4"/>
  </outline>
</glyph>
<glyph name="aogonek" format="1">
  <advance width="1145"/>
  <unicode hex="0105"/>
  <outline>
    <contour>
      <point x="578" y="-312" type="curve" smooth="yes"/>
      <point x="578" y="-448"/>
      <point x="686" y="-512"/>
      <point x="819" y="-512" type="curve" smooth="yes"/>
      <point x="903" y="-512"/>
      <point x="999" y="-491"/>
      <point x="1053" y="-450" type="curve"/>
      <point x="1053" y="-358" type="line"/>
      <point x="1000" y="-384"/>
      <point x="943" y="-398"/>
      <point x="892" y="-399" type="curve" smooth="yes"/>
      <point x="808" y="-399"/>
      <point x="743" y="-373"/>
      <point x="742" y="-280" type="curve" smooth="yes"/>
      <point x="741" y="-157"/>
      <point x="876" y="-64"/>
      <point x="962" y="-10" type="curve"/>
      <point x="939" y="4" type="line"/>
      <point x="841" y="3" type="line"/>
      <point x="727" y="-52"/>
      <point x="576" y="-175"/>
    </contour>
    <component base="a"/>
  </outline>
</glyph>
<glyph name="Eogonek" format="1">
  <advance width="1203"/>
  <unicode hex="0118"/>
  <outline>
    <contour>
      <point x="627" y="-319" type="curve"/>
      <point x="628" y="-455"/>
      <point x="734" y="-512"/>
      <point x="868" y="-512" type="curve" smooth="yes"/>
      <point x="950" y="-512"/>
      <point x="1046" y="-491"/>
      <point x="1099" y="-450" type="curve"/>
      <point x="1099" y="-358" type="line"/>
      <point x="1047" y="-384"/>
      <point x="990" y="-398"/>
      <point x="940" y="-399" type="curve" smooth="yes"/>
      <point x="857" y="-399"/>
      <point x="792" y="-373"/>
      <point x="791" y="-280" type="curve"/>
      <point x="789" y="-157"/>
      <point x="966" y="-46"/>
      <point x="1074" y="8" type="curve"/>
      <point x="1051" y="22" type="line"/>
      <point x="938" y="6" type="line"/>
      <point x="794" y="-49"/>
      <point x="625" y="-175"/>
    </contour>
    <component base="E"/>
  </outline>
</glyph>
<glyph name="eogonek" format="1">
  <advance width="1128"/>
  <unicode hex="0119"/>
  <outline>
    <contour>
      <point x="528" y="-312" type="curve"/>
      <point x="529" y="-448"/>
      <point x="639" y="-512"/>
      <point x="772" y="-512" type="curve" smooth="yes"/>
      <point x="857" y="-512"/>
      <point x="953" y="-491"/>
      <point x="1007" y="-450" type="curve"/>
      <point x="1007" y="-358" type="line"/>
      <point x="954" y="-384"/>
      <point x="896" y="-398"/>
      <point x="845" y="-399" type="curve" smooth="yes"/>
      <point x="762" y="-399"/>
      <point x="694" y="-373"/>
      <point x="693" y="-280" type="curve"/>
      <point x="691" y="-157"/>
      <point x="850" y="0"/>
      <point x="963" y="70" type="curve"/>
      <point x="939" y="84" type="line"/>
      <point x="786" y="22" type="line"/>
      <point x="665" y="-39"/>
      <point x="526" y="-190"/>
    </contour>
    <component base="e"/>
  </outline>
</glyph>
<glyph name="iogonek" format="1">
  <advance width="588"/>
  <unicode hex="012F"/>
  <outline>
    <contour>
      <point x="21" y="-299" type="curve"/>
      <point x="22" y="-435"/>
      <point x="134" y="-512"/>
      <point x="274" y="-512" type="curve" smooth="yes"/>
      <point x="359" y="-512"/>
      <point x="448" y="-491"/>
      <point x="502" y="-450" type="curve"/>
      <point x="502" y="-358" type="line"/>
      <point x="449" y="-384"/>
      <point x="391" y="-398"/>
      <point x="340" y="-399" type="curve" smooth="yes"/>
      <point x="256" y="-399"/>
      <point x="187" y="-359"/>
      <point x="185" y="-267" type="curve"/>
      <point x="184" y="-149"/>
      <point x="274" y="-53"/>
      <point x="360" y="1" type="curve"/>
      <point x="337" y="15" type="line"/>
      <point x="239" y="6" type="line"/>
      <point x="143" y="-49"/>
      <point x="19" y="-167"/>
    </contour>
    <component base="dotlessi"/>
    <component base="dotaccent" xOffset="132"/>
  </outline>
</glyph>
<glyph name="dotlessi" format="1">
  <advance width="588"/>
  <unicode hex="0131"/>
  <outline>
    <contour>
      <point x="211" y="0" type="line"/>
      <point x="377" y="0" type="line"/>
      <point x="377" y="1139" type="line"/>
      <point x="211" y="1139" type="line"/>
    </contour>
    <contour>
      <point x="342" y="-170" type="move" name="btm"/>
    </contour>
    <contour>
      <point x="293" y="1700" type="move" name="top"/>
    </contour>
  </outline>
</glyph>
<glyph name="Eng" format="1">
  <advance width="1580"/>
  <unicode hex="014A"/>
  <outline>
    <contour>
      <point x="371" y="0" type="line"/>
      <point x="371" y="972" type="line"/>
      <point x="358" y="1415" type="line"/>
      <point x="286" y="1415" type="line"/>
      <point x="506" y="1040" type="line"/>
      <point x="1189" y="35" type="line"/>
      <point x="1186" y="-99"/>
      <point x="977" y="-266"/>
      <point x="778" y="-323" type="curve"/>
      <point x="822" y="-403" type="line"/>
      <point x="1008" y="-374"/>
      <point x="1252" y="-237"/>
      <point x="1321" y="-8" type="curve" smooth="yes"/>
      <point x="1363" y="114"/>
      <point x="1368" y="253"/>
      <point x="1368" y="405" type="curve" smooth="yes"/>
      <point x="1368" y="1522" type="line"/>
      <point x="1202" y="1522" type="line"/>
      <point x="1202" y="523" type="line"/>
      <point x="1222" y="105" type="line"/>
      <point x="1281" y="105" type="line"/>
      <point x="1083" y="455" type="line"/>
      <point x="363" y="1522" type="line"/>
      <point x="205" y="1522" type="line"/>
      <point x="206" y="0" type="line"/>
    </contour>
  </outline>
</glyph>
<glyph name="Uogonek" format="1">
  <advance width="1474"/>
  <unicode hex="0172"/>
  <outline>
    <contour>
      <point x="588" y="-306" type="curve"/>
      <point x="589" y="-442"/>
      <point x="693" y="-512"/>
      <point x="830" y="-512" type="curve" smooth="yes"/>
      <point x="914" y="-512"/>
      <point x="1011" y="-491"/>
      <point x="1065" y="-450" type="curve"/>
      <point x="1065" y="-358" type="line"/>
      <point x="1012" y="-383"/>
      <point x="954" y="-398"/>
      <point x="902" y="-399" type="curve" smooth="yes"/>
      <point x="819" y="-399"/>
      <point x="754" y="-368"/>
      <point x="753" y="-275" type="curve"/>
      <point x="751" y="-152"/>
      <point x="914" y="-2"/>
      <point x="1026" y="68" type="curve"/>
      <point x="1002" y="82" type="line"/>
      <point x="850" y="20" type="line"/>
      <point x="735" y="-35"/>
      <point x="586" y="-184"/>
    </contour>
    <component base="U"/>
  </outline>
</glyph>
<glyph name="uogonek" format="1">
  <advance width="1249"/>
  <unicode hex="0173"/>
  <outline>
    <contour>
      <point x="671" y="-312" type="curve"/>
      <point x="672" y="-448"/>
      <point x="779" y="-512"/>
      <point x="913" y="-512" type="curve" smooth="yes"/>
      <point x="995" y="-512"/>
      <point x="1091" y="-491"/>
      <point x="1144" y="-450" type="curve"/>
      <point x="1144" y="-358" type="line"/>
      <point x="1092" y="-384"/>
      <point x="1035" y="-398"/>
      <point x="985" y="-399" type="curve" smooth="yes"/>
      <point x="902" y="-399"/>
      <point x="837" y="-373"/>
      <point x="836" y="-280" type="curve"/>
      <point x="834" y="-157"/>
      <point x="973" y="-60"/>
      <point x="1060" y="-7" type="curve"/>
      <point x="1037" y="7" type="line"/>
      <point x="940" y="6" type="line"/>
      <point x="822" y="-49"/>
      <point x="669" y="-175"/>
    </contour>
    <component base="u"/>
  </outline>
</glyph>
<glyph name="dotlessj" format="1">
  <advance width="562"/>
  <unicode hex="0237"/>
  <outline>
    <contour>
      <point x="-95" y="-494" type="line"/>
      <point x="-80" y="-502"/>
      <point x="2" y="-507"/>
      <point x="38" y="-507" type="curve" smooth="yes"/>
      <point x="265" y="-507"/>
      <point x="377" y="-349"/>
      <point x="377" y="23" type="curve" smooth="yes"/>
      <point x="377" y="1139" type="line"/>
      <point x="211" y="1139" type="line"/>
      <point x="211" y="-41" type="line" smooth="yes"/>
      <point x="211" y="-285"/>
      <point x="155" y="-389"/>
      <point x="21" y="-389" type="curve" smooth="yes"/>
      <point x="-18" y="-389"/>
      <point x="-74" y="-379"/>
      <point x="-95" y="-370" type="curve"/>
    </contour>
    <contour>
      <point x="307" y="1700" type="move" name="top"/>
    </contour>
  </outline>
</glyph>
<glyph name="caron" format="1">
  <advance width="824"/>
  <unicode hex="02C7"/>
  <outline>
    <contour>
      <point x="48" y="1648" type="line"/>
      <point x="345" y="1301" type="line"/>
      <point x="494" y="1301" type="line"/>
      <point x="785" y="1647" type="line"/>
      <point x="682" y="1691" type="line"/>
      <point x="419" y="1428" type="line"/>
      <point x="145" y="1691" type="line"/>
    </contour>
    <contour>
      <point x="417" y="1679" type="move" name="_top"/>
    </contour>
  </outline>
</glyph>
<glyph name="uni02c9" format="1">
  <advance width="643"/>
  <unicode hex="02C9"/>
  <outline>
    <contour>
      <point x="50" y="1743" type="line"/>
      <point x="593" y="1743" type="line"/>
      <point x="593" y="1867" type="line"/>
      <point x="50" y="1867" type="line"/>
    </contour>
    <contour>
      <point x="319" y="1700" type="move" name="_top"/>
    </contour>
  </outline>
</glyph>
<glyph name="uni1E9E" format="1">
  <advance width="1462"/>
  <unicode hex="1E9E"/>
  <outline>
    <contour>
      <point x="105" y="0" type="line" name="hr01"/>
      <point x="274" y="0" type="line"/>
      <point x="274" y="838" type="line" smooth="yes"/>
      <point x="274" y="1219"/>
      <point x="486" y="1416"/>
      <point x="771" y="1416" type="curve" smooth="yes"/>
      <point x="896" y="1416"/>
      <point x="986" y="1382"/>
      <point x="1040" y="1342" type="curve"/>
      <point x="742" y="869" type="line"/>
      <point x="734" y="808" type="line"/>
      <point x="1069" y="808"/>
      <point x="1210" y="723"/>
      <point x="1210" y="464" type="curve" smooth="yes"/>
      <point x="1210" y="245"/>
      <point x="1066" y="107"/>
      <point x="883" y="107" type="curve" smooth="yes"/>
      <point x="756" y="107"/>
      <point x="632" y="147"/>
      <point x="576" y="194" type="curve"/>
      <point x="514" y="63" type="line"/>
      <point x="591" y="16"/>
      <point x="689" y="-23"/>
      <point x="903" y="-23" type="curve" smooth="yes"/>
      <point x="1214" y="-23"/>
      <point x="1370" y="212"/>
      <point x="1370" y="464" type="curve" smooth="yes" name="hr02"/>
      <point x="1370" y="774"/>
      <point x="1166" y="905"/>
      <point x="920" y="905" type="curve"/>
      <point x="1235" y="1377" type="line"/>
      <point x="1236" y="1446" type="line"/>
      <point x="1134" y="1446"/>
      <point x="1039" y="1538"/>
      <point x="767" y="1538" type="curve" smooth="yes"/>
      <point x="319" y="1538"/>
      <point x="105" y="1240"/>
      <point x="105" y="753" type="curve" smooth="yes"/>
    </contour>
  </outline>
</glyph>
<glyph name="quoteleft" format="1">
  <advance width="498"/>
  <unicode hex="2018"/>
  <outline>
    <contour>
      <point x="294" y="963" type="curve"/>
      <point x="380" y="1059" type="line"/>
      <point x="380" y="1106" type="line"/>
      <point x="314" y="1134"/>
      <point x="258" y="1238"/>
      <point x="258" y="1338" type="curve" smooth="yes"/>
      <point x="258" y="1482"/>
      <point x="326" y="1619"/>
      <point x="383" y="1665" type="curve"/>
      <point x="383" y="1690" type="line"/>
      <point x="311" y="1737" type="line"/>
      <point x="229" y="1682"/>
      <point x="101" y="1526"/>
      <point x="101" y="1307" type="curve" smooth="yes"/>
      <point x="101" y="1148"/>
      <point x="175" y="1004"/>
    </contour>
  </outline>
</glyph>
<glyph name="daggerdbl" format="1">
  <advance width="1026"/>
  <unicode hex="2021"/>
  <outline>
    <contour>
      <point x="449" y="-356" type="line"/>
      <point x="575" y="-356" type="line"/>
      <point x="587" y="500" type="line"/>
      <point x="899" y="497" type="line"/>
      <point x="899" y="622" type="line"/>
      <point x="587" y="620" type="line"/>
      <point x="587" y="1149" type="line"/>
      <point x="900" y="1147" type="line"/>
      <point x="900" y="1272" type="line"/>
      <point x="587" y="1269" type="line"/>
      <point x="591" y="1658" type="line"/>
      <point x="434" y="1658" type="line"/>
      <point x="437" y="1269" type="line"/>
      <point x="127" y="1272" type="line"/>
      <point x="126" y="1147" type="line"/>
      <point x="437" y="1149" type="line"/>
      <point x="437" y="620" type="line"/>
      <point x="126" y="622" type="line"/>
      <point x="126" y="497" type="line"/>
      <point x="437" y="500" type="line"/>
    </contour>
  </outline>
</glyph>
<glyph name="bullet" format="1">
  <advance width="852"/>
  <unicode hex="2022"/>
  <outline>
    <contour>
      <point x="418" y="548" type="curve" smooth="yes"/>
      <point x="512" y="548"/>
      <point x="593" y="629"/>
      <point x="597" y="728" type="curve" smooth="yes"/>
      <point x="602" y="826"/>
      <point x="528" y="902"/>
      <point x="434" y="902" type="curve" smooth="yes"/>
      <point x="341" y="902"/>
      <point x="260" y="824"/>
      <point x="255" y="724" type="curve" smooth="yes"/>
      <point x="250" y="629"/>
      <point x="324" y="548"/>
    </contour>
  </outline>
</glyph>
<glyph name="ellipsis" format="1">
  <advance width="1983"/>
  <unicode hex="2026"/>
  <outline>
    <contour>
      <point x="324" y="-16" type="curve" smooth="yes"/>
      <point x="390" y="-16"/>
      <point x="449" y="44"/>
      <point x="447" y="123" type="curve" smooth="yes"/>
      <point x="445" y="187"/>
      <point x="408" y="244"/>
      <point x="336" y="244" type="curve" smooth="yes"/>
      <point x="272" y="244"/>
      <point x="213" y="181"/>
      <point x="214" y="106" type="curve" smooth="yes"/>
      <point x="216" y="35"/>
      <point x="266" y="-16"/>
    </contour>
    <contour>
      <point x="985" y="-16" type="curve" smooth="yes"/>
      <point x="1051" y="-16"/>
      <point x="1110" y="44"/>
      <point x="1107" y="123" type="curve" smooth="yes"/>
      <point x="1106" y="187"/>
      <point x="1069" y="244"/>
      <point x="996" y="244" type="curve" smooth="yes"/>
      <point x="933" y="244"/>
      <point x="873" y="181"/>
      <point x="875" y="106" type="curve" smooth="yes"/>
      <point x="877" y="35"/>
      <point x="927" y="-16"/>
    </contour>
    <contour>
      <point x="1647" y="-16" type="curve" smooth="yes"/>
      <point x="1712" y="-16"/>
      <point x="1770" y="44"/>
      <point x="1769" y="123" type="curve" smooth="yes"/>
      <point x="1767" y="187"/>
      <point x="1730" y="244"/>
      <point x="1658" y="244" type="curve" smooth="yes"/>
      <point x="1594" y="244"/>
      <point x="1534" y="181"/>
      <point x="1536" y="106" type="curve" smooth="yes"/>
      <point x="1538" y="35"/>
      <point x="1588" y="-16"/>
    </contour>
  </outline>
</glyph>
<glyph name="fraction" format="1">
  <advance width="1026"/>
  <unicode hex="2044"/>
  <outline>
    <contour>
      <point x="310" y="0" type="line"/>
      <point x="851" y="1530" type="line"/>
      <point x="699" y="1530" type="line"/>
      <point x="160" y="0" type="line"/>
    </contour>
  </outline>
</glyph>
<glyph name="colonmonetary" format="1">
  <advance width="1321"/>
  <unicode hex="20A1"/>
  <outline>
    <contour>
      <point x="523" y="34" type="curve" name="hr01"/>
      <point x="497" y="-354" type="line"/>
      <point x="587" y="-354" type="line"/>
      <point x="611" y="6" type="line"/>
      <point x="666" y="-8"/>
      <point x="726" y="-15"/>
      <point x="788" y="-16" type="curve" name="hr02"/>
      <point x="766" y="-354" type="line"/>
      <point x="857" y="-354" type="line"/>
      <point x="879" y="-13" type="line" name="hr03"/>
      <point x="1038" y="-2"/>
      <point x="1120" y="38"/>
      <point x="1199" y="64" type="curve"/>
      <point x="1197" y="208" type="line"/>
      <point x="1151" y="178"/>
      <point x="1037" y="135"/>
      <point x="888" y="122" type="curve"/>
      <point x="972" y="1389" type="line"/>
      <point x="1087" y="1372"/>
      <point x="1143" y="1341"/>
      <point x="1176" y="1330" type="curve"/>
      <point x="1200" y="1480" type="line"/>
      <point x="1157" y="1489"/>
      <point x="1094" y="1513"/>
      <point x="982" y="1527" type="curve"/>
      <point x="1001" y="1815" type="line" name="hr04"/>
      <point x="910" y="1815" type="line"/>
      <point x="891" y="1536" type="line"/>
      <point x="864" y="1537"/>
      <point x="835" y="1538"/>
      <point x="803" y="1538" type="curve" smooth="yes"/>
      <point x="772" y="1538"/>
      <point x="742" y="1536"/>
      <point x="712" y="1532" type="curve"/>
      <point x="731" y="1815" type="line"/>
      <point x="641" y="1815" type="line"/>
      <point x="621" y="1515" type="line" name="hr05"/>
      <point x="326" y="1439"/>
      <point x="107" y="1175"/>
      <point x="107" y="754" type="curve" smooth="yes"/>
      <point x="107" y="403"/>
      <point x="263" y="140"/>
    </contour>
    <contour>
      <point x="620" y="149" type="curve" name="hr07"/>
      <point x="703" y="1390" type="line"/>
      <point x="738" y="1397"/>
      <point x="774" y="1400"/>
      <point x="812" y="1400" type="curve" smooth="yes"/>
      <point x="837" y="1400"/>
      <point x="860" y="1399"/>
      <point x="882" y="1398" type="curve"/>
      <point x="797" y="118" type="line"/>
      <point x="733" y="118"/>
      <point x="674" y="129"/>
    </contour>
    <contour>
      <point x="533" y="193" type="line"/>
      <point x="367" y="299"/>
      <point x="275" y="510"/>
      <point x="275" y="766" type="curve" smooth="yes"/>
      <point x="275" y="1079"/>
      <point x="406" y="1286"/>
      <point x="611" y="1364" type="curve"/>
    </contour>
  </outline>
</glyph>
<glyph name="franc" format="1">
  <advance width="1150"/>
  <unicode hex="20A3"/>
  <outline>
    <contour>
      <point x="238" y="266" type="line"/>
      <point x="238" y="0" type="line"/>
      <point x="408" y="0" type="line"/>
      <point x="408" y="266" type="line"/>
      <point x="675" y="266" type="line"/>
      <point x="675" y="401" type="line"/>
      <point x="408" y="401" type="line"/>
      <point x="408" y="699" type="line"/>
      <point x="917" y="699" type="line"/>
      <point x="917" y="830" type="line"/>
      <point x="408" y="830" type="line"/>
      <point x="408" y="1391" type="line"/>
      <point x="1089" y="1391" type="line"/>
      <point x="1089" y="1522" type="line"/>
      <point x="238" y="1522" type="line"/>
      <point x="238" y="401" type="line"/>
      <point x="29" y="401" type="line"/>
      <point x="29" y="266" type="line"/>
    </contour>
  </outline>
</glyph>
<glyph name="lira" format="1">
  <advance width="1494"/>
  <unicode hex="20A4"/>
  <outline>
    <contour>
      <point x="141" y="54" type="curve" smooth="yes" name="hr01"/>
      <point x="141" y="15"/>
      <point x="190" y="-10"/>
      <point x="227" y="-10" type="curve" smooth="yes"/>
      <point x="292" y="-10"/>
      <point x="357" y="29"/>
      <point x="391" y="68" type="curve"/>
      <point x="527" y="110"/>
      <point x="697" y="-24"/>
      <point x="982" y="-24" type="curve" smooth="yes"/>
      <point x="1276" y="-24"/>
      <point x="1393" y="116"/>
      <point x="1393" y="317" type="curve" smooth="yes"/>
      <point x="1393" y="424"/>
      <point x="1327" y="524"/>
      <point x="1265" y="561" type="curve"/>
      <point x="1146" y="500" type="line"/>
      <point x="1200" y="473"/>
      <point x="1235" y="391"/>
      <point x="1235" y="327" type="curve" smooth="yes"/>
      <point x="1235" y="189"/>
      <point x="1161" y="96"/>
      <point x="962" y="96" type="curve" smooth="yes"/>
      <point x="762" y="96"/>
      <point x="656" y="174"/>
      <point x="504" y="169" type="curve"/>
      <point x="561" y="228"/>
      <point x="604" y="355"/>
      <point x="609" y="595" type="curve"/>
      <point x="1019" y="595" type="line" name="hr02"/>
      <point x="1019" y="701" type="line"/>
      <point x="610" y="701" type="line"/>
      <point x="609" y="869" type="line"/>
      <point x="1041" y="869" type="line"/>
      <point x="1041" y="975" type="line"/>
      <point x="609" y="975" type="line"/>
      <point x="609" y="1035" type="line" smooth="yes"/>
      <point x="607" y="1324"/>
      <point x="750" y="1411"/>
      <point x="888" y="1411" type="curve" smooth="yes"/>
      <point x="1021" y="1411"/>
      <point x="1097" y="1372"/>
      <point x="1154" y="1322" type="curve"/>
      <point x="1234" y="1444" type="line"/>
      <point x="1164" y="1499"/>
      <point x="1063" y="1538"/>
      <point x="905" y="1538" type="curve" smooth="yes"/>
      <point x="618" y="1538"/>
      <point x="442" y="1338"/>
      <point x="442" y="1057" type="curve" smooth="yes"/>
      <point x="442" y="975" type="line"/>
      <point x="231" y="975" type="line"/>
      <point x="231" y="869" type="line"/>
      <point x="442" y="869" type="line"/>
      <point x="442" y="701" type="line"/>
      <point x="209" y="701" type="line"/>
      <point x="209" y="595" type="line"/>
      <point x="442" y="595" type="line"/>
      <point x="442" y="465" type="line" smooth="yes"/>
      <point x="442" y="321"/>
      <point x="374" y="233"/>
      <point x="353" y="194" type="curve"/>
      <point x="207" y="186"/>
      <point x="141" y="126"/>
    </contour>
  </outline>
</glyph>
<glyph name="naira" format="1">
  <advance width="1816"/>
  <unicode hex="20A6"/>
  <outline>
    <contour>
      <point x="305" y="908" type="line"/>
      <point x="305" y="622" type="line"/>
      <point x="51" y="622" type="line"/>
      <point x="51" y="509" type="line"/>
      <point x="305" y="509" type="line"/>
      <point x="305" y="0" type="line"/>
      <point x="460" y="0" type="line"/>
      <point x="460" y="509" type="line"/>
      <point x="1010" y="509" type="line"/>
      <point x="1366" y="0" type="line"/>
      <point x="1522" y="0" type="line"/>
      <point x="1522" y="509" type="line"/>
      <point x="1757" y="509" type="line"/>
      <point x="1757" y="622" type="line"/>
      <point x="1522" y="622" type="line"/>
      <point x="1522" y="908" type="line"/>
      <point x="1788" y="908" type="line"/>
      <point x="1788" y="1021" type="line"/>
      <point x="1522" y="1021" type="line"/>
      <point x="1522" y="1522" type="line"/>
      <point x="1366" y="1522" type="line"/>
      <point x="1366" y="1021" type="line"/>
      <point x="810" y="1021" type="line"/>
      <point x="462" y="1522" type="line"/>
      <point x="305" y="1522" type="line"/>
      <point x="305" y="1021" type="line"/>
      <point x="76" y="1021" type="line"/>
      <point x="76" y="908" type="line"/>
    </contour>
    <contour>
      <point x="652" y="1021" type="line"/>
      <point x="458" y="1021" type="line"/>
      <point x="448" y="1319" type="line"/>
      <point x="643" y="1034" type="line"/>
    </contour>
    <contour>
      <point x="1366" y="908" type="line"/>
      <point x="1366" y="622" type="line"/>
      <point x="1088" y="622" type="line"/>
      <point x="889" y="908" type="line"/>
    </contour>
    <contour>
      <point x="731" y="908" type="line"/>
      <point x="931" y="622" type="line"/>
      <point x="460" y="622" type="line"/>
      <point x="460" y="908" type="line"/>
    </contour>
    <contour>
      <point x="1366" y="509" type="line"/>
      <point x="1379" y="197" type="line"/>
      <point x="1199" y="462" type="line"/>
      <point x="1166" y="509" type="line"/>
    </contour>
  </outline>
</glyph>
<glyph name="sheqel" format="1">
  <advance width="1613"/>
  <unicode hex="20AA"/>
  <outline>
    <contour>
      <point x="1330" y="115" type="line"/>
      <point x="1000" y="115" type="line" smooth="yes"/>
      <point x="784" y="115"/>
      <point x="687" y="184"/>
      <point x="687" y="325" type="curve" smooth="yes"/>
      <point x="687" y="1168" type="line"/>
      <point x="528" y="1168" type="line"/>
      <point x="528" y="424" type="line" smooth="yes"/>
      <point x="528" y="114"/>
      <point x="651" y="0"/>
      <point x="923" y="0" type="curve" smooth="yes"/>
      <point x="1478" y="1" type="line"/>
      <point x="1478" y="1522" type="line"/>
      <point x="1330" y="1522" type="line"/>
    </contour>
    <contour>
      <point x="293" y="1408" type="line"/>
      <point x="723" y="1408" type="line" smooth="yes"/>
      <point x="893" y="1408"/>
      <point x="946" y="1309"/>
      <point x="946" y="1168" type="curve" smooth="yes"/>
      <point x="946" y="365" type="line"/>
      <point x="1095" y="365" type="line"/>
      <point x="1095" y="1099" type="line" smooth="yes"/>
      <point x="1095" y="1412"/>
      <point x="1033" y="1522"/>
      <point x="780" y="1522" type="curve" smooth="yes"/>
      <point x="135" y="1522" type="line"/>
      <point x="135" y="0" type="line"/>
      <point x="293" y="0" type="line"/>
    </contour>
  </outline>
</glyph>
<glyph name="dong" format="1">
  <advance width="1329"/>
  <unicode hex="20AB"/>
  <outline>
    <contour>
      <point x="857" y="1393" type="line"/>
      <point x="857" y="1356" type="line"/>
      <point x="860" y="1229" type="line"/>
      <point x="817" y="1238"/>
      <point x="748" y="1248"/>
      <point x="664" y="1248" type="curve" smooth="yes"/>
      <point x="345" y="1248"/>
      <point x="157" y="1059"/>
      <point x="157" y="736" type="curve" smooth="yes"/>
      <point x="157" y="433"/>
      <point x="352" y="291"/>
      <point x="573" y="291" type="curve" smooth="yes"/>
      <point x="753" y="291"/>
      <point x="840" y="360"/>
      <point x="884" y="401" type="curve"/>
      <point x="884" y="331" type="line" smooth="yes"/>
      <point x="884" y="323"/>
      <point x="885" y="291"/>
      <point x="905" y="291" type="curve" smooth="yes"/>
      <point x="1022" y="291" type="line"/>
      <point x="1022" y="1393" type="line"/>
      <point x="1288" y="1393" type="line"/>
      <point x="1288" y="1521" type="line"/>
      <point x="1022" y="1521" type="line"/>
      <point x="1022" y="1694" type="line"/>
      <point x="857" y="1694" type="line"/>
      <point x="857" y="1521" type="line"/>
      <point x="512" y="1521" type="line"/>
      <point x="512" y="1393" type="line"/>
    </contour>
    <contour>
      <point x="583" y="429" type="curve" smooth="yes"/>
      <point x="468" y="429"/>
      <point x="335" y="514"/>
      <point x="335" y="740" type="curve" smooth="yes"/>
      <point x="335" y="950"/>
      <point x="409" y="1110"/>
      <point x="661" y="1110" type="curve" smooth="yes"/>
      <point x="798" y="1110"/>
      <point x="842" y="1084"/>
      <point x="857" y="1069" type="curve"/>
      <point x="857" y="525" type="line"/>
      <point x="833" y="504"/>
      <point x="795" y="429"/>
    </contour>
    <contour>
      <point x="1218" y="0" type="line"/>
      <point x="1218" y="151" type="line"/>
      <point x="113" y="151" type="line"/>
      <point x="113" y="0" type="line"/>
    </contour>
  </outline>
</glyph>
<glyph name="euro" format="1">
  <advance width="1522"/>
  <unicode hex="20AC"/>
  <outline>
    <contour>
      <point x="919" y="-28" type="curve" smooth="yes"/>
      <point x="1208" y="-28"/>
      <point x="1283" y="47"/>
      <point x="1371" y="61" type="curve"/>
      <point x="1325" y="187" type="line"/>
      <point x="1250" y="145"/>
      <point x="1118" y="95"/>
      <point x="940" y="95" type="curve" smooth="yes"/>
      <point x="601" y="95"/>
      <point x="493" y="380"/>
      <point x="493" y="767" type="curve" smooth="yes"/>
      <point x="493" y="1207"/>
      <point x="706" y="1411"/>
      <point x="969" y="1411" type="curve" smooth="yes"/>
      <point x="1134" y="1410"/>
      <point x="1223" y="1383"/>
      <point x="1301" y="1341" type="curve"/>
      <point x="1342" y="1475" type="line"/>
      <point x="1260" y="1496"/>
      <point x="1176" y="1544"/>
      <point x="973" y="1538" type="curve" smooth="yes"/>
      <point x="567" y="1527"/>
      <point x="311" y="1224"/>
      <point x="311" y="720" type="curve" smooth="yes"/>
      <point x="311" y="277"/>
      <point x="515" y="-28"/>
    </contour>
    <contour>
      <point x="150" y="899" type="line"/>
      <point x="1105" y="899" type="line"/>
      <point x="1105" y="1008" type="line"/>
      <point x="150" y="1008" type="line"/>
    </contour>
    <contour>
      <point x="119" y="527" type="line"/>
      <point x="1072" y="527" type="line"/>
      <point x="1072" y="637" type="line"/>
      <point x="119" y="637" type="line"/>
    </contour>
  </outline>
</glyph>
<glyph name="uni20B1" format="1">
  <advance width="1363"/>
  <unicode hex="20B1"/>
  <outline>
    <contour>
      <point x="206" y="1091" type="line"/>
      <point x="206" y="945" type="line"/>
      <point x="24" y="945" type="line"/>
      <point x="24" y="861" type="line"/>
      <point x="206" y="861" type="line"/>
      <point x="206" y="0" type="line"/>
      <point x="375" y="0" type="line"/>
      <point x="375" y="535" type="line"/>
      <point x="415" y="535"/>
      <point x="514" y="527"/>
      <point x="622" y="527" type="curve" smooth="yes"/>
      <point x="905" y="528"/>
      <point x="1098" y="645"/>
      <point x="1166" y="861" type="curve"/>
      <point x="1360" y="861" type="line"/>
      <point x="1360" y="945" type="line"/>
      <point x="1185" y="945" type="line"/>
      <point x="1190" y="976"/>
      <point x="1193" y="1010"/>
      <point x="1193" y="1045" type="curve" smooth="yes"/>
      <point x="1193" y="1061"/>
      <point x="1192" y="1076"/>
      <point x="1191" y="1091" type="curve"/>
      <point x="1360" y="1091" type="line"/>
      <point x="1360" y="1175" type="line"/>
      <point x="1182" y="1175" type="line"/>
      <point x="1137" y="1434"/>
      <point x="945" y="1536"/>
      <point x="666" y="1536" type="curve" smooth="yes"/>
      <point x="533" y="1536"/>
      <point x="401" y="1522"/>
      <point x="288" y="1522" type="curve" smooth="yes"/>
      <point x="206" y="1522" type="line"/>
      <point x="206" y="1175" type="line"/>
      <point x="24" y="1175" type="line"/>
      <point x="24" y="1091" type="line"/>
    </contour>
    <contour>
      <point x="375" y="1398" type="line"/>
      <point x="447" y="1409"/>
      <point x="537" y="1411"/>
      <point x="616" y="1414" type="curve"/>
      <point x="840" y="1419"/>
      <point x="970" y="1347"/>
      <point x="1010" y="1175" type="curve"/>
      <point x="375" y="1175" type="line"/>
    </contour>
    <contour>
      <point x="1024" y="1044" type="curve" smooth="yes"/>
      <point x="1024" y="1008"/>
      <point x="1021" y="976"/>
      <point x="1016" y="945" type="curve"/>
      <point x="375" y="945" type="line"/>
      <point x="375" y="1091" type="line"/>
      <point x="1022" y="1091" type="line"/>
      <point x="1023" y="1076"/>
      <point x="1024" y="1060"/>
    </contour>
    <contour>
      <point x="375" y="861" type="line"/>
      <point x="992" y="861" type="line"/>
      <point x="931" y="709"/>
      <point x="784" y="655"/>
      <point x="612" y="652" type="curve"/>
      <point x="552" y="652"/>
      <point x="436" y="656"/>
      <point x="375" y="664" type="curve"/>
    </contour>
  </outline>
</glyph>
<glyph name="uni20B5" format="1">
  <advance width="1384"/>
  <unicode hex="20B5"/>
  <outline>
    <contour>
      <point x="107" y="754" type="curve" smooth="yes"/>
      <point x="107" y="357"/>
      <point x="307" y="73"/>
      <point x="630" y="1" type="curve"/>
      <point x="598" y="-354" type="line"/>
      <point x="712" y="-354" type="line"/>
      <point x="742" y="-14" type="line"/>
      <point x="761" y="-15"/>
      <point x="776" y="-16"/>
      <point x="795" y="-16" type="curve" smooth="yes"/>
      <point x="1011" y="-16"/>
      <point x="1107" y="34"/>
      <point x="1199" y="64" type="curve"/>
      <point x="1197" y="208" type="line"/>
      <point x="1143" y="173"/>
      <point x="992" y="118"/>
      <point x="802" y="118" type="curve" smooth="yes"/>
      <point x="786" y="118"/>
      <point x="770" y="117"/>
      <point x="754" y="120" type="curve"/>
      <point x="869" y="1398" type="line"/>
      <point x="1056" y="1390"/>
      <point x="1134" y="1343"/>
      <point x="1176" y="1330" type="curve"/>
      <point x="1200" y="1480" type="line"/>
      <point x="1145" y="1493"/>
      <point x="1057" y="1528"/>
      <point x="881" y="1536" type="curve"/>
      <point x="906" y="1815" type="line"/>
      <point x="792" y="1815" type="line"/>
      <point x="767" y="1537" type="line"/>
      <point x="403" y="1521"/>
      <point x="107" y="1242"/>
    </contour>
    <contour>
      <point x="275" y="766" type="curve" smooth="yes"/>
      <point x="275" y="1147"/>
      <point x="470" y="1370"/>
      <point x="754" y="1397" type="curve"/>
      <point x="642" y="141" type="line"/>
      <point x="407" y="216"/>
      <point x="275" y="459"/>
    </contour>
  </outline>
</glyph>
<glyph name="uni20BA" format="1">
  <advance width="1411"/>
  <unicode hex="20BA"/>
  <outline>
    <contour>
      <point x="1139" y="719" type="line"/>
      <point x="1139" y="306"/>
      <point x="861" y="136"/>
      <point x="541" y="136" type="curve"/>
      <point x="541" y="660" type="line"/>
      <point x="1016" y="867" type="line"/>
      <point x="1016" y="995" type="line"/>
      <point x="541" y="788" type="line"/>
      <point x="541" y="1049" type="line"/>
      <point x="1032" y="1264" type="line"/>
      <point x="1032" y="1399" type="line"/>
      <point x="541" y="1184" type="line"/>
      <point x="541" y="1538" type="line"/>
      <point x="377" y="1538" type="line"/>
      <point x="377" y="1112" type="line"/>
      <point x="84" y="984" type="line"/>
      <point x="84" y="849" type="line"/>
      <point x="377" y="977" type="line"/>
      <point x="377" y="717" type="line"/>
      <point x="91" y="593" type="line"/>
      <point x="91" y="465" type="line"/>
      <point x="377" y="589" type="line"/>
      <point x="377" y="0" type="line"/>
      <point x="541" y="0" type="line" smooth="yes"/>
      <point x="965" y="0"/>
      <point x="1300" y="253"/>
      <point x="1300" y="674" type="curve" smooth="yes"/>
      <point x="1300" y="719" type="line"/>
    </contour>
  </outline>
</glyph>
<glyph name="Ohm" format="1">
  <advance width="1815"/>
  <unicode hex="2126"/>
  <outline>
    <contour>
      <point x="743" y="114" type="line"/>
      <point x="576" y="223"/>
      <point x="371" y="504"/>
      <point x="371" y="863" type="curve" smooth="yes"/>
      <point x="371" y="1247"/>
      <point x="630" y="1421"/>
      <point x="902" y="1421" type="curve" smooth="yes"/>
      <point x="1151" y="1421"/>
      <point x="1417" y="1264"/>
      <point x="1417" y="863" type="curve" smooth="yes"/>
      <point x="1417" y="498"/>
      <point x="1241" y="223"/>
      <point x="1060" y="114" type="curve"/>
      <point x="1061" y="0" type="line"/>
      <point x="1082" y="12"/>
      <point x="1146" y="60"/>
      <point x="1169" y="73" type="curve"/>
      <point x="1394" y="199"/>
      <point x="1587" y="513"/>
      <point x="1587" y="869" type="curve" smooth="yes"/>
      <point x="1587" y="1306"/>
      <point x="1291" y="1545"/>
      <point x="902" y="1545" type="curve" smooth="yes"/>
      <point x="554" y="1545"/>
      <point x="203" y="1329"/>
      <point x="201" y="869" type="curve" smooth="yes"/>
      <point x="199" y="519"/>
      <point x="420" y="199"/>
      <point x="614" y="84" type="curve"/>
      <point x="743" y="0" type="line"/>
    </contour>
    <contour>
      <point x="212" y="0" type="line"/>
      <point x="743" y="0" type="line"/>
      <point x="615" y="118" type="line"/>
      <point x="212" y="118" type="line"/>
    </contour>
    <contour>
      <point x="1061" y="0" type="line"/>
      <point x="1622" y="0" type="line"/>
      <point x="1622" y="118" type="line"/>
      <point x="1146" y="118" type="line"/>
    </contour>
  </outline>
</glyph>
<glyph name="partialdiff" format="1">
  <advance width="1366"/>
  <unicode hex="2202"/>
  <outline>
    <contour>
      <point x="659" y="-29" type="curve" smooth="yes"/>
      <point x="1104" y="-29"/>
      <point x="1228" y="417"/>
      <point x="1220" y="861" type="curve" smooth="yes"/>
      <point x="1212" y="1270"/>
      <point x="1045" y="1684"/>
      <point x="555" y="1684" type="curve" smooth="yes"/>
      <point x="435" y="1684"/>
      <point x="278" y="1651"/>
      <point x="185" y="1582" type="curve"/>
      <point x="241" y="1486" type="line"/>
      <point x="300" y="1526"/>
      <point x="414" y="1559"/>
      <point x="524" y="1559" type="curve" smooth="yes"/>
      <point x="914" y="1559"/>
      <point x="1045" y="1267"/>
      <point x="1061" y="931" type="curve" smooth="yes"/>
      <point x="1063" y="896"/>
      <point x="1063" y="856"/>
      <point x="1063" y="816" type="curve" smooth="yes"/>
      <point x="1063" y="543"/>
      <point x="1016" y="96"/>
      <point x="673" y="94" type="curve" smooth="yes"/>
      <point x="448" y="93"/>
      <point x="338" y="241"/>
      <point x="325" y="463" type="curve" smooth="yes"/>
      <point x="307" y="775"/>
      <point x="543" y="926"/>
      <point x="753" y="926" type="curve" smooth="yes"/>
      <point x="899" y="926"/>
      <point x="1019" y="906"/>
      <point x="1135" y="819" type="curve"/>
      <point x="1135" y="819"/>
      <point x="1113" y="970"/>
      <point x="1112" y="970" type="curve"/>
      <point x="1000" y="1023"/>
      <point x="891" y="1043"/>
      <point x="766" y="1043" type="curve" smooth="yes"/>
      <point x="423" y="1043"/>
      <point x="141" y="818"/>
      <point x="164" y="437" type="curve" smooth="yes"/>
      <point x="180" y="153"/>
      <point x="385" y="-29"/>
    </contour>
  </outline>
</glyph>
<glyph name="summation" format="1">
  <advance width="1508"/>
  <unicode hex="2211"/>
  <outline>
    <contour>
      <point x="220" y="-170" type="line"/>
      <point x="1274" y="-171" type="line"/>
      <point x="1274" y="-51" type="line"/>
      <point x="333" y="-51" type="line"/>
      <point x="390" y="-112" type="line"/>
      <point x="948" y="684" type="line"/>
      <point x="369" y="1466" type="line"/>
      <point x="290" y="1396" type="line"/>
      <point x="1261" y="1396" type="line"/>
      <point x="1261" y="1522" type="line"/>
      <point x="224" y="1522" type="line"/>
      <point x="200" y="1459" type="line"/>
      <point x="773" y="680" type="line"/>
      <point x="200" y="-128" type="line"/>
    </contour>
  </outline>
</glyph>
<glyph name="uni2215" format="1">
  <advance width="854"/>
  <unicode hex="2215"/>
  <outline>
    <contour>
      <point x="-34" y="-363" type="line"/>
      <point x="113" y="-363" type="line"/>
      <point x="888" y="1599" type="line"/>
      <point x="741" y="1599" type="line"/>
    </contour>
  </outline>
</glyph>
<glyph name="uni2219" format="1">
  <advance width="655"/>
  <unicode hex="2219"/>
  <outline>
    <contour>
      <point x="319" y="572" type="curve" smooth="yes"/>
      <point x="401" y="572"/>
      <point x="475" y="642"/>
      <point x="471" y="736" type="curve" smooth="yes"/>
      <point x="470" y="814"/>
      <point x="423" y="880"/>
      <point x="334" y="880" type="curve" smooth="yes"/>
      <point x="256" y="880"/>
      <point x="180" y="806"/>
      <point x="183" y="716" type="curve" smooth="yes"/>
      <point x="185" y="632"/>
      <point x="247" y="572"/>
    </contour>
  </outline>
</glyph>
<glyph name="radical" format="1">
  <advance width="1602"/>
  <unicode hex="221A"/>
  <outline>
    <contour>
      <point x="720" y="-354" type="line"/>
      <point x="857" y="-354" type="line"/>
      <point x="1571" y="1870" type="line"/>
      <point x="1406" y="1870" type="line"/>
      <point x="761" y="-202" type="line"/>
      <point x="810" y="-202" type="line"/>
      <point x="431" y="714" type="line"/>
      <point x="285" y="714" type="line"/>
      <point x="97" y="599" type="line"/>
      <point x="169" y="478" type="line"/>
      <point x="313" y="566" type="line"/>
    </contour>
  </outline>
</glyph>
<glyph name="commaaccent" format="1">
  <advance width="335"/>
  <unicode hex="F6C3"/>
  <outline>
    <contour>
      <point x="134" y="-560" type="line"/>
      <point x="189" y="-536"/>
      <point x="272" y="-439"/>
      <point x="272" y="-305" type="curve" smooth="yes"/>
      <point x="272" y="-197"/>
      <point x="226" y="-119"/>
      <point x="177" y="-97" type="curve"/>
      <point x="57" y="-167" type="line"/>
      <point x="57" y="-205" type="line"/>
      <point x="95" y="-215"/>
      <point x="129" y="-275"/>
      <point x="129" y="-345" type="curve" smooth="yes"/>
      <point x="129" y="-420"/>
      <point x="102" y="-485"/>
      <point x="76" y="-508" type="curve"/>
      <point x="76" y="-528" type="line"/>
    </contour>
    <contour>
      <point x="156" y="-170" type="move" name="_btm"/>
    </contour>
  </outline>
</glyph>
<glyph name="IJ_acutecomb" format="1">
  <advance width="1307"/>
  <outline>
    <contour>
      <point x="221" y="0" type="line"/>
      <point x="392" y="0" type="line"/>
      <point x="392" y="1522" type="line"/>
      <point x="221" y="1522" type="line"/>
    </contour>
    <contour>
      <point x="260" y="1589" type="line"/>
      <point x="384" y="1650"/>
      <point x="541" y="1768"/>
      <point x="646" y="1873" type="curve"/>
      <point x="535" y="1975" type="line"/>
      <point x="495" y="1930"/>
      <point x="233" y="1696"/>
      <point x="188" y="1660" type="curve"/>
    </contour>
    <contour>
      <point x="627" y="-332" type="line"/>
      <point x="801" y="-307"/>
      <point x="1015" y="-178"/>
      <point x="1059" y="65" type="curve" smooth="yes"/>
      <point x="1083" y="198"/>
      <point x="1078" y="360"/>
      <point x="1078" y="537" type="curve" smooth="yes"/>
      <point x="1078" y="1522" type="line"/>
      <point x="906" y="1522" type="line"/>
      <point x="906" y="554" type="line" smooth="yes"/>
      <point x="906" y="344"/>
      <point x="908" y="150"/>
      <point x="872" y="31" type="curve" smooth="yes"/>
      <point x="828" y="-118"/>
      <point x="698" y="-209"/>
      <point x="574" y="-243" type="curve"/>
    </contour>
    <component base="acute.cap" xOffset="805" yOffset="-1"/>
  </outline>
</glyph>
<glyph name="acute.cap" format="1">
  <advance width="564"/>
  <outline>
    <contour>
      <point x="128" y="1589" type="line"/>
      <point x="252" y="1650"/>
      <point x="409" y="1768"/>
      <point x="514" y="1873" type="curve"/>
      <point x="403" y="1975" type="line"/>
      <point x="363" y="1930"/>
      <point x="101" y="1696"/>
      <point x="56" y="1660" type="curve"/>
    </contour>
    <contour>
      <point x="175" y="1700" type="move" name="_top"/>
    </contour>
  </outline>
</glyph>
<glyph name="hungarumlaut.cap" format="1">
  <advance width="955"/>
  <outline>
    <contour>
      <point x="149" y="1639" type="line"/>
      <point x="234" y="1707"/>
      <point x="328" y="1808"/>
      <point x="410" y="1922" type="curve"/>
      <point x="280" y="1990" type="line"/>
      <point x="254" y="1948"/>
      <point x="90" y="1732"/>
      <point x="54" y="1692" type="curve"/>
    </contour>
    <contour>
      <point x="617" y="1639" type="line"/>
      <point x="705" y="1706"/>
      <point x="806" y="1811"/>
      <point x="878" y="1913" type="curve"/>
      <point x="754" y="1981" type="line"/>
      <point x="731" y="1946"/>
      <point x="558" y="1732"/>
      <point x="521" y="1692" type="curve"/>
    </contour>
    <contour>
      <point x="399" y="1700" type="move" name="_top"/>
    </contour>
  </outline>
</glyph>
<glyph name="one.numr" format="1">
  <advance width="1009"/>
  <outline>
    <contour>
      <point x="479" y="662" type="line"/>
      <point x="640" y="662" type="line"/>
      <point x="640" y="1667" type="line"/>
      <point x="558" y="1688" type="line"/>
      <point x="511" y="1649"/>
      <point x="329" y="1529"/>
      <point x="208" y="1494" type="curve"/>
      <point x="240" y="1402" type="line"/>
      <point x="341" y="1424"/>
      <point x="408" y="1469"/>
      <point x="479" y="1487" type="curve"/>
    </contour>
  </outline>
</glyph>
<glyph name="three.numr" format="1">
  <advance width="1194"/>
  <outline>
    <contour>
      <point x="308" y="626" type="line"/>
      <point x="375" y="605"/>
      <point x="463" y="588"/>
      <point x="537" y="588" type="curve" smooth="yes"/>
      <point x="844" y="588"/>
      <point x="988" y="741"/>
      <point x="988" y="933" type="curve" smooth="yes"/>
      <point x="988" y="1047"/>
      <point x="908" y="1184"/>
      <point x="701" y="1190" type="curve"/>
      <point x="846" y="1250"/>
      <point x="917" y="1346"/>
      <point x="917" y="1462" type="curve" smooth="yes"/>
      <point x="917" y="1594"/>
      <point x="802" y="1706"/>
      <point x="565" y="1699" type="curve" smooth="yes"/>
      <point x="486" y="1696"/>
      <point x="336" y="1658"/>
      <point x="255" y="1591" type="curve"/>
      <point x="303" y="1499" type="line"/>
      <point x="370" y="1548"/>
      <point x="468" y="1584"/>
      <point x="549" y="1588" type="curve" smooth="yes"/>
      <point x="692" y="1597"/>
      <point x="762" y="1523"/>
      <point x="764" y="1445" type="curve" smooth="yes"/>
      <point x="767" y="1354"/>
      <point x="708" y="1285"/>
      <point x="603" y="1243" type="curve"/>
      <point x="558" y="1225"/>
      <point x="489" y="1202"/>
      <point x="436" y="1191" type="curve"/>
      <point x="465" y="1093" type="line"/>
      <point x="584" y="1126" type="line"/>
      <point x="737" y="1124"/>
      <point x="829" y="1043"/>
      <point x="827" y="926" type="curve" smooth="yes"/>
      <point x="827" y="802"/>
      <point x="745" y="704"/>
      <point x="523" y="702" type="curve" smooth="yes"/>
      <point x="432" y="701"/>
      <point x="374" y="713"/>
      <point x="298" y="736" type="curve"/>
    </contour>
  </outline>
</glyph>
